<svg width="18" height="18" viewBox="0 0 18 18" fill="none" xmlns="http://www.w3.org/2000/svg">
<path d="M2 18C1.45 18 0.979002 17.804 0.587002 17.412C0.195002 17.02 -0.000664969 16.5493 1.69779e-06 16V2C1.69779e-06 1.45 0.196002 0.979002 0.588002 0.587002C0.980002 0.195002 1.45067 -0.000664969 2 1.69779e-06H16C16.55 1.69779e-06 17.021 0.196002 17.413 0.588002C17.805 0.980002 18.0007 1.45067 18 2V16C18 16.55 17.804 17.021 17.412 17.413C17.02 17.805 16.5493 18.0007 16 18H2ZM7.6 12.775C7.73334 12.775 7.85834 12.754 7.975 12.712C8.09167 12.67 8.2 12.5993 8.3 12.5L13.975 6.825C14.1583 6.64167 14.25 6.41667 14.25 6.15C14.25 5.88333 14.15 5.65 13.95 5.45C13.7667 5.26667 13.5333 5.175 13.25 5.175C12.9667 5.175 12.7333 5.26667 12.55 5.45L7.6 10.4L5.425 8.225C5.24167 8.04167 5.01667 7.95 4.75 7.95C4.48334 7.95 4.25 8.05 4.05 8.25C3.86667 8.43334 3.775 8.66667 3.775 8.95C3.775 9.23334 3.86667 9.46667 4.05 9.65L6.9 12.5C7 12.6 7.10834 12.6707 7.225 12.712C7.34167 12.7533 7.46667 12.7743 7.6 12.775Z" fill="#36D2E2"/>
</svg>
