<svg width="184" height="70" viewBox="0 0 184 70" fill="none" xmlns="http://www.w3.org/2000/svg">
<g clip-path="url(#clip0_41_2)">
<path d="M34.7975 0H148.301C157.932 0 166.683 3.93584 173.024 10.2766C178.742 15.9944 182.503 23.6727 183.188 32.1884L176.907 29.3981C174.276 16.0207 162.42 5.84767 148.301 5.84767H34.7974C20.5819 5.84767 8.65962 16.1602 6.1379 29.6732L0.671736 27.2296C2.16357 20.7046 5.48996 14.8605 10.0739 10.2766C16.4146 3.93584 25.1665 0 34.7972 0L34.7975 0ZM182.202 43.6937C180.617 49.8468 177.391 55.3569 173.024 59.7233C166.683 66.064 157.932 69.9999 148.301 69.9999H34.7975C25.1667 69.9999 16.4149 66.064 10.0742 59.7233C4.56965 54.2192 0.878347 46.8974 0 38.7612L6.44126 41.7507C9.5074 54.5576 21.0855 64.1522 34.7975 64.1522H148.301C162.216 64.1522 173.933 54.2715 176.787 41.1804L182.203 43.6937H182.202Z" fill="url(#paint0_linear_41_2)"/>
<path d="M84.4591 35.0406C84.4591 15.351 55.2501 15.351 55.2501 35.0406C55.2501 54.771 84.4591 54.771 84.4591 35.0406Z" fill="url(#paint1_linear_41_2)"/>
<path d="M48.8383 34.9591C48.8383 39.0273 45.7467 40.0851 42.777 40.2479V29.7115C45.9093 29.8333 48.8383 30.891 48.8383 34.9591ZM29.9624 34.9591C29.9624 30.891 32.8914 29.8333 36.0237 29.7115V40.2479C33.0541 40.085 29.9624 39.0273 29.9624 34.9591ZM35.9424 53.0555L42.8582 50.0078V46.9602C50.2213 46.7161 56.2828 43.8278 56.2828 34.9591C56.2828 26.1315 50.0448 23.2838 42.6817 23.0396V19.992L36.1443 16.9443V23.0396C28.781 23.2838 22.5176 26.1314 22.5176 34.9591C22.5176 43.8278 28.5791 46.7161 35.9424 46.9602V53.0555ZM83.4667 34.9999C83.5075 44.682 90.83 49.5637 98.0713 49.5229C104.133 49.5229 110.52 46.3498 111.577 38.295C109.096 38.295 106.858 38.295 104.418 38.295C103.645 41.346 101.163 42.892 98.0713 42.892C93.759 42.8514 90.9926 39.1902 90.9926 34.9999C90.9926 30.2809 93.7996 27.0671 98.0713 27.0671C101.122 27.0671 103.278 28.3689 104.295 31.2571C106.777 31.2571 108.974 31.2571 111.455 31.2571C110.357 23.6497 103.97 20.436 98.0713 20.436C90.83 20.436 83.5075 25.3176 83.4667 34.9998V34.9999ZM130.478 49.2383H138.065L123.156 16.9443L108.234 49.2383H115.914L117.582 45.6584H128.81L130.478 49.2383ZM126.451 39.4342H119.942L123.155 31.949L126.45 39.4342H126.451ZM160.282 20.7615C157.8 20.7615 155.318 20.7615 152.837 20.7615V31.0946H144.05V20.7615C141.568 20.7615 139.046 20.7615 136.605 20.7615V49.2383C139.046 49.2383 141.568 49.2383 144.05 49.2383V37.8069H152.837V49.2383L160.282 52.6939V20.7615Z" fill="url(#paint2_linear_41_2)"/>
<path d="M81.1782 38.6354C81.1782 23.4165 58.601 23.4165 58.601 38.6354C58.601 53.8861 81.1782 53.8861 81.1782 38.6354Z" fill="url(#paint3_linear_41_2)"/>
<path d="M63.5456 32.7102C64.8164 26.887 68.4552 20.0758 69.8137 16.9116C71.2108 20.0843 74.9158 26.9151 76.2023 32.7454C79.1812 46.2429 60.5763 46.3171 63.5456 32.7102Z" fill="#6B7B8B"/>
<path d="M68.2225 20.3593C68.8649 18.989 69.4299 17.8048 69.8137 16.9116C70.2067 17.8042 70.7823 18.9859 71.4354 20.3536C70.3678 20.2493 69.2899 20.2513 68.2225 20.3593Z" fill="#36D2E2"/>
</g>
<defs>
<linearGradient id="paint0_linear_41_2" x1="183" y1="35" x2="9.4921e-07" y2="35.0105" gradientUnits="userSpaceOnUse">
<stop stop-color="#00B4FF"/>
<stop offset="0.419608" stop-color="#3EC9EB"/>
<stop offset="1" stop-color="#59E4D8"/>
</linearGradient>
<linearGradient id="paint1_linear_41_2" x1="69.9975" y1="49.743" x2="69.9965" y2="5.49973" gradientUnits="userSpaceOnUse">
<stop stop-color="#00A1E4"/>
<stop offset="0.419608" stop-color="#27BFE3"/>
<stop offset="1" stop-color="#4BEDDE"/>
</linearGradient>
<linearGradient id="paint2_linear_41_2" x1="37.6863" y1="18.9585" x2="37.6863" y2="52.8535" gradientUnits="userSpaceOnUse">
<stop stop-color="white"/>
<stop offset="1" stop-color="white"/>
</linearGradient>
<linearGradient id="paint3_linear_41_2" x1="70" y1="49.9997" x2="69.9994" y2="19.9997" gradientUnits="userSpaceOnUse">
<stop stop-color="#00B4FF"/>
<stop offset="0.419608" stop-color="#3EC9EB"/>
<stop offset="1" stop-color="#59E4D8"/>
</linearGradient>
<clipPath id="clip0_41_2">
<rect width="183.188" height="70" fill="white"/>
</clipPath>
</defs>
</svg>
