<svg width="54" height="42" viewBox="0 0 54 42" fill="none" xmlns="http://www.w3.org/2000/svg">
<path d="M0 42L53.2048 34.9046V0L0 7.09538V42ZM2.75625 9.50381L50.4525 3.15V32.4962L2.75625 38.85V9.50381Z" fill="#F43E36"/>
<path d="M7.24475 20.2105C7.7049 20.4405 8.18911 20.6187 8.68851 20.7421C9.06846 20.8258 9.45983 20.8449 9.84613 20.7985C10.1825 20.7657 10.5018 20.6353 10.7649 20.4231C10.8704 20.3419 10.9561 20.2378 11.0157 20.1187C11.0753 19.9996 11.1071 19.8686 11.1088 19.7354C11.1088 19.36 10.7019 18.9912 9.88288 18.6342C9.75163 18.5778 9.65188 18.5279 9.57575 18.503L8.95625 18.2405C8.42944 18.0369 7.96546 17.6983 7.61094 17.2587C7.31235 16.851 7.1581 16.3555 7.17256 15.8504C7.17192 15.4878 7.24606 15.129 7.39037 14.7963C7.53467 14.4637 7.74604 14.1643 8.01125 13.9171C8.60091 13.3514 9.36268 12.9989 10.1756 12.9156C10.528 12.8699 10.8841 12.8594 11.2387 12.8841C11.6657 12.9168 12.0901 12.9773 12.5092 13.0653V15.2243C12.106 15.0215 11.6823 14.8622 11.2453 14.7492C10.9163 14.6553 10.5726 14.6237 10.232 14.656C9.9637 14.6823 9.70902 14.7868 9.49963 14.9566C9.41548 15.0268 9.3482 15.115 9.30276 15.2148C9.25732 15.3145 9.2349 15.4232 9.23713 15.5328C9.23454 15.689 9.29021 15.8406 9.39331 15.958C9.52408 16.1006 9.68696 16.2099 9.86844 16.277L10.9447 16.7271C11.6303 16.9634 12.2529 17.3531 12.7651 17.8664C13.0877 18.2768 13.2542 18.7884 13.235 19.3101C13.2427 19.7347 13.1654 20.1565 13.0077 20.5508C12.8499 20.945 12.6148 21.3037 12.3163 21.6057C11.6622 22.2597 10.8029 22.6685 9.88288 22.7633C9.5114 22.8071 9.13707 22.8216 8.76332 22.8066C8.31804 22.7839 7.87476 22.7317 7.43638 22.6504L7.24475 20.2105ZM17.6936 13.8974L17.393 13.9407V16.3938L17.7868 16.3373C18.2496 16.3004 18.6914 16.1284 19.0572 15.8425C19.1994 15.7223 19.3126 15.5716 19.3885 15.4017C19.4644 15.2317 19.501 15.0468 19.4956 14.8608C19.5139 14.6906 19.4829 14.5187 19.4064 14.3656C19.3298 14.2125 19.2109 14.0846 19.0638 13.9971C18.6274 13.8269 18.1498 13.7926 17.6936 13.8987V13.8974ZM15.1998 21.7435V12.5403L17.5623 12.2213C18.1347 12.127 18.7164 12.1019 19.2948 12.1465C19.6982 12.1877 20.0874 12.3182 20.4341 12.5285C20.7701 12.7247 21.0451 13.0106 21.2281 13.354C21.4167 13.7081 21.5133 14.1039 21.509 14.5051C21.5183 14.9443 21.4344 15.3805 21.263 15.785C21.0915 16.1895 20.8363 16.5531 20.5141 16.8518C19.7649 17.5245 18.8194 17.9387 17.8169 18.0331C17.6975 18.0515 17.6109 18.058 17.5544 18.0646C17.498 18.0711 17.4416 18.0646 17.3917 18.0777V21.4443L15.1998 21.7435ZM24.3873 17.5895L26.8023 17.264L25.6079 14.5418L24.3873 17.5895ZM20.9394 20.9744L25.6381 10.8577L25.7694 10.8393L30.3552 19.7105L28.0597 20.0176L27.4782 18.7602L23.7429 19.2603L23.1483 20.6804L20.9394 20.9744ZM38.2329 12.3657C37.8829 12.0395 37.4728 11.7845 37.0254 11.615C36.612 11.4705 36.1705 11.4255 35.7365 11.4837C34.9854 11.5735 34.2998 11.9554 33.8281 12.5468C33.3293 13.1587 33.0654 13.9285 33.0839 14.7177C33.0608 15.0759 33.1148 15.4349 33.2423 15.7705C33.3698 16.106 33.5678 16.4103 33.8229 16.6628C34.0808 16.8924 34.3884 17.0592 34.7215 17.1503C35.0545 17.2414 35.4042 17.2542 35.7431 17.1878C36.2347 17.1183 36.7084 16.9547 37.1382 16.7061C37.6446 16.4125 38.1113 16.0552 38.5269 15.643L38.3825 18.1079C37.9908 18.428 37.5572 18.693 37.0936 18.8954C36.6292 19.0991 36.1382 19.236 35.6354 19.3023C35.1174 19.376 34.5906 19.3614 34.0775 19.2589C33.5876 19.1584 33.1207 18.9675 32.7007 18.6959C32.1189 18.3197 31.6482 17.795 31.337 17.176C31.016 16.5134 30.8551 15.7846 30.8671 15.0485C30.8654 14.3765 30.9841 13.7098 31.2176 13.0797C31.4528 12.4517 31.7957 11.8694 32.2308 11.359C32.6701 10.8494 33.1979 10.4235 33.7887 10.1016C34.3655 9.78529 34.9955 9.57752 35.6472 9.48869C36.1375 9.41935 36.6355 9.42556 37.1238 9.50708C37.596 9.58789 38.0509 9.74857 38.4691 9.9822L38.2329 12.3657ZM40.3329 18.3717V9.16846L46.0016 8.41113V10.3064L42.467 10.7815V12.4458L45.4949 12.0389V13.9236L42.467 14.3305V16.1549L46.0514 15.6732V17.6131L40.3329 18.3717Z" fill="white"/>
<path d="M17.6124 30.2097L20.034 29.8842L18.8331 27.1621L17.6124 30.2097ZM14.1645 33.5946L18.8567 23.4779L18.9879 23.4595L23.5817 32.3307L21.2861 32.6378L20.7047 31.3739L16.9693 31.8739L16.3747 33.2941L14.1645 33.5946ZM27.1583 24.3415L26.8577 24.3848V26.8431L27.2514 26.7867C27.7143 26.7498 28.1561 26.5778 28.5219 26.2919C28.664 26.1716 28.7771 26.0209 28.853 25.851C28.9289 25.681 28.9656 25.4962 28.9603 25.3102C28.9786 25.14 28.9476 24.9681 28.8711 24.815C28.7945 24.6619 28.6756 24.534 28.5285 24.4465C28.093 24.2731 27.6151 24.2364 27.1583 24.3415ZM24.6645 32.1876V22.9844L27.027 22.6654C27.5994 22.571 28.1811 22.5459 28.7595 22.5906C29.1629 22.6318 29.5521 22.7623 29.8987 22.9726C30.2348 23.1689 30.5097 23.4547 30.6928 23.7981C30.8819 24.1521 30.9789 24.5479 30.975 24.9492C30.9843 25.3884 30.9005 25.8247 30.729 26.2292C30.5575 26.6336 30.3023 26.9972 29.9801 27.296C29.231 27.9688 28.2854 28.3829 27.2829 28.4772C27.1635 28.489 27.0769 28.5021 27.0204 28.5087C26.964 28.5153 26.9076 28.5087 26.8577 28.5205V31.8871L24.6645 32.1876ZM35.2196 23.2627L34.9191 23.306V25.7642L35.3128 25.7078C35.7756 25.6709 36.2174 25.4988 36.5833 25.213C36.7254 25.0928 36.8387 24.9421 36.9145 24.7722C36.9904 24.6022 37.0271 24.4173 37.0217 24.2312C37.04 24.0611 37.009 23.8892 36.9324 23.7361C36.8559 23.583 36.737 23.4551 36.5899 23.3676C36.1543 23.1931 35.676 23.1551 35.2183 23.2587L35.2196 23.2627ZM32.7259 31.1088V21.9055L35.0884 21.5866C35.6608 21.4921 36.2425 21.467 36.8209 21.5118C37.2243 21.5529 37.6134 21.6834 37.9601 21.8937C38.2962 22.09 38.5711 22.3758 38.7542 22.7193C38.9433 23.0732 39.0403 23.469 39.0364 23.8703C39.0457 24.3096 38.9618 24.7458 38.7903 25.1503C38.6189 25.5548 38.3636 25.9183 38.0415 26.2171C37.2923 26.8898 36.3468 27.3039 35.3443 27.3983C35.2249 27.4115 35.1383 27.4233 35.0818 27.4298C35.0254 27.4364 34.9689 27.4298 34.9191 27.443V30.8003L32.7259 31.1088Z" fill="white"/>
</svg>
