<svg width="167" height="32" viewBox="0 0 167 32" fill="none" xmlns="http://www.w3.org/2000/svg">
<path d="M0 16C0 7.71573 6.71573 1 15 1C23.2843 1 30 7.71573 30 16C30 24.2843 23.2843 31 15 31C6.71573 31 0 24.2843 0 16Z" fill="#FC3F1D"/>
<path d="M17.212 9.40014H15.694C13.091 9.40014 11.79 10.7021 11.79 12.6541C11.79 14.8221 12.658 15.9071 14.61 17.2081L16.128 18.2921L11.79 25.0151H8.32001L12.44 18.9431C10.055 17.2081 8.75401 15.6901 8.75401 12.8711C8.75401 9.40114 11.14 7.01514 15.694 7.01514H20.248V25.0151H17.212V9.40114V9.40014Z" fill="white"/>
<path d="M32 16C32 7.71573 38.7157 1 47 1C55.2843 1 62 7.71573 62 16C62 24.2843 55.2843 31 47 31C38.7157 31 32 24.2843 32 16Z" fill="url(#paint0_linear_1_1901)"/>
<mask id="mask0_1_1901" style="mask-type:alpha" maskUnits="userSpaceOnUse" x="32" y="1" width="30" height="30">
<path d="M32 16C32 7.71573 38.7157 1 47 1C55.2843 1 62 7.71573 62 16C62 24.2843 55.2843 31 47 31C38.7157 31 32 24.2843 32 16Z" fill="url(#paint1_linear_1_1901)"/>
</mask>
<g mask="url(#mask0_1_1901)">
<path d="M32 26.9822L39.161 18.4352L37.407 25.1292L42.841 27.0972L50.915 15.5882L49.146 22.1702L53.548 24.7172L62 16.2582V9.29817L56.006 15.3032L57.336 7.74517L51.795 5.72217L43.825 17.0922L44.619 11.9322L40.277 9.42817L32 19.2982V26.9822Z" fill="black"/>
</g>
<path d="M77.957 27.0001H81.207L85.823 9.93709V27.0001H89.528V4.41309H84.425L79.843 21.0531L75.325 4.41309H70.125V27.0001H73.343V9.93709L77.957 27.0001ZM105.006 15.8521C105.006 11.8871 102.991 10.3921 98.896 10.3921C96.329 10.3921 94.314 11.2051 93.144 11.8871V15.1051C94.184 14.3251 96.459 13.4801 98.441 13.4801C100.294 13.4801 101.139 14.1301 101.139 15.8851V16.7951H100.521C94.606 16.7951 91.974 18.7451 91.974 22.0601C91.974 25.3751 93.989 27.2281 96.979 27.2281C99.254 27.2281 100.229 26.4801 100.976 25.7001H101.139C101.171 26.1221 101.301 26.6751 101.431 27.0001H105.201C105.071 25.6717 105.006 24.3378 105.006 23.0031V15.8531V15.8521ZM101.139 23.1001C100.651 23.8151 99.741 24.4001 98.376 24.4001C96.751 24.4001 95.939 23.4251 95.939 21.9621C95.939 20.0451 97.271 19.3621 100.586 19.3621H101.139V23.1001ZM111.691 10.6521H108.116V31.7121H111.983V25.0821C112.958 26.5451 114.388 27.3251 116.046 27.3251C119.816 27.3251 122.416 24.3021 122.416 18.8101C122.416 13.3501 119.881 10.3281 116.241 10.3281C114.421 10.3281 112.926 11.1731 111.886 12.7651L111.691 10.6521ZM115.071 24.2701C113.023 24.2701 111.983 22.6131 111.983 18.8431C111.983 15.0401 113.088 13.3831 115.266 13.3831C117.378 13.3831 118.418 15.0401 118.418 18.8101C118.418 22.6131 117.313 24.2701 115.071 24.2701ZM134.588 27.0001H138.975L132.768 18.1921L138.228 10.6521H134.328L128.868 18.1921V10.6521H125V27.0001H128.868V18.9731L134.588 27.0001ZM151.986 25.8951V22.7431C150.783 23.5551 148.768 24.2701 146.883 24.2701C144.056 24.2701 142.983 22.9381 142.821 20.2071H152.148V18.1601C152.148 12.4721 149.646 10.3281 145.778 10.3281C141.066 10.3281 138.823 13.9351 138.823 18.8751C138.823 24.5631 141.618 27.3251 146.558 27.3251C149.028 27.3251 150.848 26.6751 151.986 25.8951ZM145.713 13.3831C147.631 13.3831 148.216 14.9751 148.216 17.0231V17.3481H142.821C142.918 14.7481 143.861 13.3831 145.713 13.3831ZM165.907 13.7081V10.6521H152.939V13.7081H157.489V27.0001H161.357V13.7071H165.907V13.7081Z" fill="black"/>
<defs>
<linearGradient id="paint0_linear_1_1901" x1="47" y1="-6.139" x2="47" y2="33.848" gradientUnits="userSpaceOnUse">
<stop stop-color="#FFE55B"/>
<stop offset="1" stop-color="#FFCC00"/>
</linearGradient>
<linearGradient id="paint1_linear_1_1901" x1="47" y1="-6.139" x2="47" y2="33.848" gradientUnits="userSpaceOnUse">
<stop stop-color="#FFE55B"/>
<stop offset="1" stop-color="#FFCC00"/>
</linearGradient>
</defs>
</svg>
