<svg width="184" height="70" viewBox="0 0 184 70" fill="none" xmlns="http://www.w3.org/2000/svg">
<g clip-path="url(#clip0_39_42)">
<path d="M34.7975 0H148.301C157.932 0 166.683 3.93584 173.024 10.2766C178.742 15.9944 182.503 23.6727 183.188 32.1884L176.907 29.3981C174.276 16.0207 162.42 5.84767 148.301 5.84767H34.7974C20.5819 5.84767 8.65962 16.1602 6.1379 29.6732L0.671736 27.2296C2.16357 20.7046 5.48996 14.8605 10.0739 10.2766C16.4146 3.93584 25.1665 0 34.7972 0L34.7975 0ZM182.202 43.6937C180.617 49.8468 177.391 55.3569 173.024 59.7233C166.683 66.064 157.932 69.9999 148.301 69.9999H34.7975C25.1667 69.9999 16.4149 66.064 10.0742 59.7233C4.56965 54.2192 0.878347 46.8974 0 38.7612L6.44126 41.7507C9.5074 54.5576 21.0855 64.1522 34.7975 64.1522H148.301C162.216 64.1522 173.933 54.2715 176.787 41.1804L182.203 43.6937H182.202Z" fill="url(#paint0_linear_39_42)"/>
<path d="M84.4591 35.0409C84.4591 15.3513 55.2501 15.3513 55.2501 35.0409C55.2501 54.7712 84.4591 54.7712 84.4591 35.0409Z" fill="url(#paint1_linear_39_42)"/>
<path d="M48.8383 34.9594C48.8383 39.0276 45.7467 40.0854 42.777 40.2482V29.7118C45.9093 29.8336 48.8383 30.8914 48.8383 34.9594ZM29.9624 34.9594C29.9624 30.8914 32.8914 29.8336 36.0237 29.7118V40.2482C33.0541 40.0853 29.9624 39.0276 29.9624 34.9594V34.9594ZM35.9424 53.0558L42.8582 50.0081V46.9605C50.2213 46.7164 56.2828 43.8281 56.2828 34.9594C56.2828 26.1318 50.0448 23.2841 42.6817 23.0399V19.9923L36.1443 16.9446V23.0399C28.781 23.2841 22.5176 26.1317 22.5176 34.9594C22.5176 43.8281 28.5791 46.7164 35.9424 46.9605V53.0558V53.0558ZM83.4667 35.0002C83.5075 44.6823 90.83 49.564 98.0713 49.5232C104.133 49.5232 110.52 46.3501 111.577 38.2953C109.096 38.2953 106.858 38.2953 104.418 38.2953C103.645 41.3463 101.163 42.8923 98.0713 42.8923C93.759 42.8517 90.9926 39.1905 90.9926 35.0002C90.9926 30.2812 93.7996 27.0674 98.0713 27.0674C101.122 27.0674 103.278 28.3692 104.295 31.2574C106.777 31.2574 108.974 31.2574 111.455 31.2574C110.357 23.65 103.97 20.4363 98.0713 20.4363C90.83 20.4363 83.5075 25.3179 83.4667 35.0001V35.0002ZM130.478 49.2386H138.065L123.156 16.9446L108.234 49.2386H115.914L117.582 45.6587H128.81L130.478 49.2386ZM126.451 39.4345H119.942L123.155 31.9493L126.45 39.4345H126.451ZM160.282 20.7618C157.8 20.7618 155.318 20.7618 152.837 20.7618V31.0949H144.05V20.7618C141.568 20.7618 139.046 20.7618 136.605 20.7618V49.2386C139.046 49.2386 141.568 49.2386 144.05 49.2386V37.8073H152.837V49.2386L160.282 52.6942V20.7618V20.7618Z" fill="url(#paint2_linear_39_42)"/>
<path d="M81.1782 38.6357C81.1782 23.4168 58.601 23.4168 58.601 38.6357C58.601 53.8864 81.1782 53.8864 81.1782 38.6357Z" fill="url(#paint3_linear_39_42)"/>
<path d="M63.5456 32.7103C64.8164 26.8872 68.4552 20.076 69.8137 16.9118C71.2108 20.0845 74.9158 26.9153 76.2023 32.7455C79.1812 46.2431 60.5763 46.3172 63.5456 32.7103Z" fill="#FEFEFE"/>
<path d="M68.2225 20.3594C68.8649 18.9891 69.4299 17.805 69.8137 16.9118C70.2067 17.8044 70.7823 18.9861 71.4354 20.3538C70.3678 20.2494 69.2899 20.2514 68.2225 20.3594V20.3594Z" fill="#36D2E2"/>
</g>
<defs>
<linearGradient id="paint0_linear_39_42" x1="183" y1="35" x2="9.4921e-07" y2="35.0105" gradientUnits="userSpaceOnUse">
<stop stop-color="#00B4FF"/>
<stop offset="0.419608" stop-color="#3EC9EB"/>
<stop offset="1" stop-color="#59E4D8"/>
</linearGradient>
<linearGradient id="paint1_linear_39_42" x1="69.9975" y1="49.7433" x2="69.9965" y2="5.5" gradientUnits="userSpaceOnUse">
<stop stop-color="#00A1E4"/>
<stop offset="0.419608" stop-color="#27BFE3"/>
<stop offset="1" stop-color="#4BEDDE"/>
</linearGradient>
<linearGradient id="paint2_linear_39_42" x1="37.6863" y1="18.9588" x2="37.6863" y2="52.8538" gradientUnits="userSpaceOnUse">
<stop stop-color="#99A2AB"/>
<stop offset="1" stop-color="#2E3A47"/>
</linearGradient>
<linearGradient id="paint3_linear_39_42" x1="70" y1="50" x2="69.9994" y2="20" gradientUnits="userSpaceOnUse">
<stop stop-color="#00B4FF"/>
<stop offset="0.419608" stop-color="#3EC9EB"/>
<stop offset="1" stop-color="#59E4D8"/>
</linearGradient>
<clipPath id="clip0_39_42">
<rect width="183.188" height="70" fill="white"/>
</clipPath>
</defs>
</svg>
