<svg width="220" height="31" viewBox="0 0 220 31" fill="none" xmlns="http://www.w3.org/2000/svg">
<path fill-rule="evenodd" clip-rule="evenodd" d="M13.9912 1.82899C14.7683 0.256644 16.9988 0.256644 17.7759 1.82899L21.4341 9.23079L29.6491 10.4452C31.3887 10.7023 32.0733 12.8588 30.8036 14.082L24.9803 19.6923L26.3097 27.8559C26.5897 29.5747 24.8074 30.8836 23.2644 30.0924L15.8836 26.3077L8.55997 30.063C7.00638 30.8597 5.21605 29.5279 5.51893 27.8009L6.94102 19.6923L1.11057 14.0752C-0.157805 12.8532 0.523979 10.6989 2.26138 10.4389L10.333 9.23079L13.9912 1.82899Z" fill="#D0DAE4"/>
<path fill-rule="evenodd" clip-rule="evenodd" d="M61.5549 1.57366C62.3472 0.0597553 64.5029 0.0597576 65.2951 1.57366L69.3021 9.23079L78.0412 10.4509C79.8184 10.699 80.4989 12.9208 79.1685 14.1314L73.0568 19.6923L74.4773 27.9302C74.771 29.6334 73.0271 30.9578 71.4783 30.2078L63.425 26.3077L55.4313 30.179C53.8712 30.9345 52.1192 29.586 52.4371 27.8743L53.9565 19.6923L47.8374 14.1246C46.5082 12.9152 47.186 10.6956 48.9611 10.4446L57.548 9.23079L61.5549 1.57366Z" fill="#D0DAE4"/>
<path fill-rule="evenodd" clip-rule="evenodd" d="M109.081 1.82899C109.858 0.256644 112.089 0.256644 112.866 1.82899L116.524 9.23079L124.739 10.4452C126.478 10.7023 127.163 12.8588 125.893 14.082L120.07 19.6923L121.4 27.8559C121.679 29.5747 119.897 30.8836 118.354 30.0924L110.973 26.3077L103.65 30.063C102.096 30.8597 100.306 29.5279 100.609 27.8009L102.031 19.6923L96.2004 14.0752C94.932 12.8532 95.6138 10.6989 97.3512 10.4389L105.423 9.23079L109.081 1.82899Z" fill="#D0DAE4"/>
<path fill-rule="evenodd" clip-rule="evenodd" d="M155.577 1.82899C156.355 0.256644 158.585 0.256644 159.362 1.82899L163.02 9.23079L171.235 10.4452C172.975 10.7023 173.66 12.8588 172.39 14.082L166.567 19.6923L167.896 27.8559C168.176 29.5747 166.394 30.8836 164.851 30.0924L157.47 26.3077L150.146 30.063C148.593 30.8597 146.802 29.5279 147.105 27.8009L148.527 19.6923L142.697 14.0752C141.428 12.8532 142.11 10.6989 143.848 10.4389L151.919 9.23079L155.577 1.82899Z" fill="#D0DAE4"/>
<path fill-rule="evenodd" clip-rule="evenodd" d="M202.066 1.82899C202.843 0.256644 205.074 0.256644 205.851 1.82899L209.509 9.23079L217.724 10.4452C219.464 10.7023 220.148 12.8588 218.879 14.082L213.055 19.6923L214.385 27.8559C214.665 29.5747 212.882 30.8836 211.339 30.0924L203.959 26.3077L196.635 30.063C195.081 30.8597 193.291 29.5279 193.594 27.8009L195.016 19.6923L189.186 14.0752C187.917 12.8532 188.599 10.6989 190.336 10.4389L198.408 9.23079L202.066 1.82899Z" fill="#D0DAE4"/>
</svg>
