<svg width="24" height="24" viewBox="0 0 24 24" fill="none" xmlns="http://www.w3.org/2000/svg">
<path d="M8.20118 19.6842C7.31488 19.6842 6.53937 20.4579 6.53937 21.3421C6.53937 22.2263 7.31488 23 8.20118 23C9.08748 23 9.86299 22.2263 9.86299 21.3421C9.86299 20.4579 9.08748 19.6842 8.20118 19.6842ZM19.8339 16.3684H6.53937C5.87465 16.3684 5.4315 15.9263 5.4315 15.2632C5.4315 14.6 5.87465 14.1579 6.53937 14.1579H15.9563C17.3965 14.1579 18.726 13.1632 19.1691 11.7263L20.9417 5.64737C21.1633 5.09474 20.7202 4.43158 20.1662 4.32105C20.0554 4.32105 19.9446 4.32105 19.8339 4.32105H6.20701C5.76386 2.88421 4.5452 2 3.10496 2H2.10787C1.44315 2 1 2.44211 1 3.10526C1 3.76842 1.44315 4.21053 2.10787 4.21053H3.10496C3.54811 4.21053 3.99126 4.5421 4.21283 4.98421L4.32362 5.64737L6.20701 11.9474C4.32362 12.1684 2.99417 13.8263 3.21575 15.5947C3.43732 17.2526 4.87756 18.5789 6.53937 18.5789H19.8339C20.4986 18.5789 20.9417 18.1368 20.9417 17.4737C20.9417 16.8105 20.4986 16.3684 19.8339 16.3684ZM17.0642 19.6842C16.1779 19.6842 15.4024 20.4579 15.4024 21.3421C15.4024 22.2263 16.1779 23 17.0642 23C17.9505 23 18.726 22.2263 18.726 21.3421C18.726 20.4579 17.9505 19.6842 17.0642 19.6842Z" fill="#2E3A47"/>
</svg>
