<svg width="24" height="24" viewBox="0 0 24 24" fill="none" xmlns="http://www.w3.org/2000/svg">
<path d="M7.5 19.5C7.5 20.0933 7.32405 20.6734 6.99441 21.1667C6.66477 21.6601 6.19623 22.0446 5.64805 22.2716C5.09987 22.4987 4.49667 22.5581 3.91473 22.4424C3.33279 22.3266 2.79824 22.0409 2.37868 21.6213C1.95912 21.2018 1.6734 20.6672 1.55765 20.0853C1.44189 19.5033 1.5013 18.9001 1.72836 18.352C1.95543 17.8038 2.33994 17.3352 2.83329 17.0056C3.32664 16.676 3.90666 16.5 4.5 16.5C5.29565 16.5 6.05871 16.8161 6.62132 17.3787C7.18393 17.9413 7.5 18.7044 7.5 19.5ZM4.5 1.5C3.90666 1.5 3.32664 1.67595 2.83329 2.00559C2.33994 2.33524 1.95543 2.80377 1.72836 3.35195C1.5013 3.90013 1.44189 4.50333 1.55765 5.08527C1.6734 5.66722 1.95912 6.20176 2.37868 6.62132C2.79824 7.04088 3.33279 7.3266 3.91473 7.44236C4.49667 7.55811 5.09987 7.4987 5.64805 7.27164C6.19623 7.04458 6.66477 6.66006 6.99441 6.16671C7.32405 5.67336 7.5 5.09335 7.5 4.5C7.5 3.70435 7.18393 2.94129 6.62132 2.37868C6.05871 1.81607 5.29565 1.5 4.5 1.5ZM4.5 9C3.90666 9 3.32664 9.17595 2.83329 9.50559C2.33994 9.83524 1.95543 10.3038 1.72836 10.852C1.5013 11.4001 1.44189 12.0033 1.55765 12.5853C1.6734 13.1672 1.95912 13.7018 2.37868 14.1213C2.79824 14.5409 3.33279 14.8266 3.91473 14.9424C4.49667 15.0581 5.09987 14.9987 5.64805 14.7716C6.19623 14.5446 6.66477 14.1601 6.99441 13.6667C7.32405 13.1734 7.5 12.5933 7.5 12C7.5 11.2044 7.18393 10.4413 6.62132 9.87868C6.05871 9.31607 5.29565 9 4.5 9ZM12 16.5C11.4067 16.5 10.8266 16.676 10.3333 17.0056C9.83994 17.3352 9.45543 17.8038 9.22836 18.352C9.0013 18.9001 8.94189 19.5033 9.05765 20.0853C9.1734 20.6672 9.45912 21.2018 9.87868 21.6213C10.2982 22.0409 10.8328 22.3266 11.4147 22.4424C11.9967 22.5581 12.5999 22.4987 13.1481 22.2716C13.6962 22.0446 14.1648 21.6601 14.4944 21.1667C14.8241 20.6734 15 20.0933 15 19.5C15 18.7044 14.6839 17.9413 14.1213 17.3787C13.5587 16.8161 12.7957 16.5 12 16.5ZM12 1.5C11.4067 1.5 10.8266 1.67595 10.3333 2.00559C9.83994 2.33524 9.45543 2.80377 9.22836 3.35195C9.0013 3.90013 8.94189 4.50333 9.05765 5.08527C9.1734 5.66722 9.45912 6.20176 9.87868 6.62132C10.2982 7.04088 10.8328 7.3266 11.4147 7.44236C11.9967 7.55811 12.5999 7.4987 13.1481 7.27164C13.6962 7.04458 14.1648 6.66006 14.4944 6.16671C14.8241 5.67336 15 5.09335 15 4.5C15 3.70435 14.6839 2.94129 14.1213 2.37868C13.5587 1.81607 12.7957 1.5 12 1.5ZM12 9C11.4067 9 10.8266 9.17595 10.3333 9.50559C9.83994 9.83524 9.45543 10.3038 9.22836 10.852C9.0013 11.4001 8.94189 12.0033 9.05765 12.5853C9.1734 13.1672 9.45912 13.7018 9.87868 14.1213C10.2982 14.5409 10.8328 14.8266 11.4147 14.9424C11.9967 15.0581 12.5999 14.9987 13.1481 14.7716C13.6962 14.5446 14.1648 14.1601 14.4944 13.6667C14.8241 13.1734 15 12.5933 15 12C15 11.2044 14.6839 10.4413 14.1213 9.87868C13.5587 9.31607 12.7957 9 12 9ZM19.5 16.5C18.9067 16.5 18.3266 16.676 17.8333 17.0056C17.3399 17.3352 16.9554 17.8038 16.7284 18.352C16.5013 18.9001 16.4419 19.5033 16.5576 20.0853C16.6734 20.6672 16.9591 21.2018 17.3787 21.6213C17.7982 22.0409 18.3328 22.3266 18.9147 22.4424C19.4967 22.5581 20.0999 22.4987 20.6481 22.2716C21.1962 22.0446 21.6648 21.6601 21.9944 21.1667C22.3241 20.6734 22.5 20.0933 22.5 19.5C22.5 18.7044 22.1839 17.9413 21.6213 17.3787C21.0587 16.8161 20.2957 16.5 19.5 16.5ZM19.5 7.5C20.0933 7.5 20.6734 7.32405 21.1667 6.99441C21.6601 6.66477 22.0446 6.19623 22.2716 5.64805C22.4987 5.09987 22.5581 4.49667 22.4424 3.91473C22.3266 3.33279 22.0409 2.79824 21.6213 2.37868C21.2018 1.95912 20.6672 1.6734 20.0853 1.55765C19.5033 1.44189 18.9001 1.5013 18.352 1.72836C17.8038 1.95543 17.3352 2.33994 17.0056 2.83329C16.676 3.32664 16.5 3.90666 16.5 4.5C16.5 5.29565 16.8161 6.05871 17.3787 6.62132C17.9413 7.18393 18.7044 7.5 19.5 7.5ZM19.5 9C18.9067 9 18.3266 9.17595 17.8333 9.50559C17.3399 9.83524 16.9554 10.3038 16.7284 10.852C16.5013 11.4001 16.4419 12.0033 16.5576 12.5853C16.6734 13.1672 16.9591 13.7018 17.3787 14.1213C17.7982 14.5409 18.3328 14.8266 18.9147 14.9424C19.4967 15.0581 20.0999 14.9987 20.6481 14.7716C21.1962 14.5446 21.6648 14.1601 21.9944 13.6667C22.3241 13.1734 22.5 12.5933 22.5 12C22.5 11.2044 22.1839 10.4413 21.6213 9.87868C21.0587 9.31607 20.2957 9 19.5 9Z" fill="white"/>
</svg>
