<svg width="24" height="24" viewBox="0 0 24 24" fill="none" xmlns="http://www.w3.org/2000/svg">
<path d="M12 13C15.584 13 18.5 10.084 18.5 6.5C18.5 2.916 15.584 0 12 0C8.416 0 5.5 2.917 5.5 6.5C5.5 10.083 8.416 13 12 13ZM12 4C13.379 4 14.5 5.122 14.5 6.5C14.5 7.878 13.379 9 12 9C10.621 9 9.5 7.879 9.5 6.5C9.5 5.121 10.621 4 12 4Z" fill="#D0DAE4"/>
<path d="M18.367 16.081C18.7149 15.8516 19.0005 15.5396 19.1983 15.1727C19.396 14.8059 19.4997 14.3957 19.5 13.979C19.5 13.261 19.12 12.643 18.484 12.324C18.166 12.1647 17.8097 12.0979 17.4556 12.1311C17.1015 12.1644 16.7638 12.2963 16.481 12.512C13.876 14.46 10.124 14.46 7.51799 12.512C7.23529 12.2965 6.8978 12.1647 6.5439 12.1315C6.19 12.0982 5.83387 12.1649 5.51599 12.324C5.20728 12.4753 4.9479 12.7112 4.76803 13.0042C4.58816 13.2972 4.49521 13.6352 4.49999 13.979C4.49999 14.824 4.92399 15.61 5.63299 16.081C6.53699 16.682 7.52299 17.152 8.56399 17.479C8.73999 17.533 8.92099 17.583 9.10799 17.63L6.08699 20.587C5.90031 20.7718 5.75227 20.9919 5.65149 21.2345C5.55071 21.4771 5.49921 21.7373 5.49999 22C5.49999 22.534 5.70799 23.036 6.08599 23.414C6.86499 24.194 8.13499 24.194 8.91999 23.408L12 20.22L15.086 23.414C15.476 23.805 15.988 24 16.5 24C17.012 24 17.524 23.805 17.914 23.415C18.292 23.037 18.5 22.535 18.5 22C18.5 21.465 18.292 20.963 17.91 20.582L14.892 17.629C15.08 17.582 15.262 17.531 15.439 17.477C16.476 17.1523 17.4618 16.6823 18.367 16.081Z" fill="#D0DAE4"/>
</svg>
