<svg width="24" height="24" viewBox="0 0 24 24" fill="none" xmlns="http://www.w3.org/2000/svg">
<g clip-path="url(#clip0_1_930)">
<path d="M11.742 18.039H13.176C13.176 18.039 13.6095 17.991 13.83 17.7525C14.034 17.5335 14.0265 17.1225 14.0265 17.1225C14.0265 17.1225 13.998 15.198 14.892 14.9145C15.7725 14.6355 16.9035 16.7745 18.102 17.598C19.008 18.2205 19.6965 18.084 19.6965 18.084L22.902 18.039C22.902 18.039 24.579 17.9355 23.784 16.617C23.7195 16.509 23.3205 15.642 21.4005 13.86C19.3905 11.994 19.6605 12.297 22.0815 9.0705C23.556 7.1055 24.1455 5.9055 23.961 5.3925C23.7855 4.9035 22.701 5.0325 22.701 5.0325L19.095 5.0535C19.095 5.0535 18.828 5.0175 18.6285 5.136C18.435 5.253 18.3105 5.523 18.3105 5.523C18.3105 5.523 17.739 7.044 16.977 8.337C15.3705 11.0655 14.727 11.2095 14.4645 11.04C13.854 10.6455 14.007 9.453 14.007 8.607C14.007 5.9625 14.4075 4.86 13.2255 4.575C12.8325 4.4805 12.5445 4.4175 11.541 4.407C10.254 4.3935 9.16353 4.4115 8.54703 4.713C8.13603 4.914 7.81953 5.3625 8.01303 5.388C8.25153 5.4195 8.79153 5.5335 9.07803 5.9235C9.44853 6.426 9.43503 7.557 9.43503 7.557C9.43503 7.557 9.64803 10.6695 8.93853 11.0565C8.45103 11.322 7.78353 10.7805 6.35103 8.304C5.61753 7.0365 5.06253 5.634 5.06253 5.634C5.06253 5.634 4.95603 5.373 4.76553 5.2335C4.53453 5.064 4.21053 5.01 4.21053 5.01L0.78153 5.031C0.78153 5.031 0.26703 5.046 0.0780297 5.2695C-0.0899703 5.469 0.0645297 5.88 0.0645297 5.88C0.0645297 5.88 2.74953 12.1605 5.78853 15.327C8.57703 18.2295 11.742 18.039 11.742 18.039Z" fill="#D0DAE4"/>
</g>
<defs>
<clipPath id="clip0_1_930">
<rect width="24" height="24" fill="white"/>
</clipPath>
</defs>
</svg>
