<svg width="41" height="31" viewBox="0 0 41 31" fill="none" xmlns="http://www.w3.org/2000/svg">
<path d="M0 31L40.1176 25.7629V0L0 5.23706V31ZM2.07828 7.01472L38.0423 2.325V23.9853L2.07828 28.675V7.01472Z" fill="#F43E36"/>
<path d="M5.52557 15.3473C5.87089 15.522 6.23425 15.6574 6.60901 15.7511C6.89414 15.8148 7.18783 15.8293 7.47772 15.794C7.7301 15.7691 7.96977 15.67 8.16717 15.5088C8.24636 15.4471 8.31071 15.368 8.3554 15.2775C8.40009 15.187 8.42397 15.0875 8.42523 14.9863C8.42523 14.7011 8.1199 14.4209 7.5053 14.1497C7.4068 14.1068 7.33195 14.0689 7.27482 14.05L6.80993 13.8506C6.4146 13.6959 6.06642 13.4387 5.80037 13.1047C5.5763 12.795 5.46055 12.4185 5.4714 12.0347C5.47092 11.7592 5.52656 11.4866 5.63485 11.2339C5.74314 10.9812 5.90175 10.7538 6.10078 10.5659C6.54327 10.1361 7.11492 9.86833 7.72494 9.80507C7.98943 9.77034 8.25667 9.76232 8.52273 9.78114C8.84316 9.80591 9.16165 9.85188 9.47615 9.91875V11.5591C9.17356 11.405 8.8556 11.284 8.52766 11.1981C8.28077 11.1268 8.02289 11.1028 7.76729 11.1273C7.56595 11.1473 7.37483 11.2266 7.2177 11.3556C7.15455 11.409 7.10406 11.476 7.06996 11.5518C7.03586 11.6276 7.01904 11.7102 7.02071 11.7934C7.01877 11.9121 7.06055 12.0273 7.13792 12.1165C7.23605 12.2248 7.35827 12.3079 7.49446 12.3588L8.30211 12.7008C8.81661 12.8803 9.28384 13.1764 9.66822 13.5664C9.9103 13.8782 10.0353 14.2669 10.0208 14.6632C10.0266 14.9858 9.96862 15.3063 9.85022 15.6058C9.73181 15.9053 9.5554 16.1778 9.33137 16.4073C8.84056 16.9041 8.19571 17.2147 7.5053 17.2868C7.22653 17.32 6.94562 17.331 6.66515 17.3197C6.331 17.3024 5.99835 17.2628 5.66938 17.201L5.52557 15.3473ZM13.3666 10.5509L13.1411 10.5839V12.4475L13.4366 12.4047C13.7839 12.3766 14.1154 12.2459 14.39 12.0287C14.4966 11.9374 14.5816 11.8229 14.6386 11.6938C14.6955 11.5647 14.723 11.4242 14.719 11.2829C14.7327 11.1536 14.7094 11.023 14.652 10.9067C14.5945 10.7904 14.5053 10.6932 14.3949 10.6267C14.0675 10.4974 13.709 10.4713 13.3666 10.5519V10.5509ZM11.4953 16.512V9.51989L13.2682 9.27757C13.6977 9.20589 14.1342 9.18681 14.5683 9.22074C14.871 9.25201 15.163 9.35114 15.4232 9.51091C15.6754 9.66004 15.8817 9.87719 16.0191 10.1381C16.1606 10.4071 16.2331 10.7079 16.2299 11.0126C16.2368 11.3463 16.1739 11.6778 16.0452 11.9851C15.9165 12.2924 15.725 12.5686 15.4833 12.7955C14.9211 13.3066 14.2115 13.6213 13.4592 13.693C13.3696 13.707 13.3046 13.7119 13.2622 13.7169C13.2199 13.7219 13.1775 13.7169 13.1401 13.7269V16.2846L11.4953 16.512ZM18.3898 13.356L20.2021 13.1087L19.3058 11.0406L18.3898 13.356ZM15.8024 15.9276L19.3285 8.24153L19.427 8.22756L22.8683 14.9674L21.1457 15.2007L20.7093 14.2454L17.9062 14.6253L17.46 15.7043L15.8024 15.9276ZM28.7799 9.38726C28.5173 9.13941 28.2095 8.94569 27.8738 8.81689C27.5636 8.70714 27.2322 8.67297 26.9066 8.71717C26.3429 8.78542 25.8284 9.07557 25.4745 9.52486C25.1002 9.98971 24.9021 10.5746 24.916 11.1742C24.8987 11.4463 24.9392 11.7191 25.0349 11.974C25.1305 12.2289 25.2791 12.4601 25.4705 12.652C25.6641 12.8264 25.8949 12.9531 26.1448 13.0223C26.3948 13.0915 26.6572 13.1013 26.9115 13.0508C27.2804 12.998 27.6359 12.8737 27.9585 12.6849C28.3385 12.4618 28.6887 12.1903 29.0005 11.8772L28.8922 13.7498C28.5983 13.993 28.2729 14.1943 27.925 14.3481C27.5764 14.5029 27.208 14.6069 26.8307 14.6572C26.442 14.7133 26.0467 14.7021 25.6616 14.6243C25.2939 14.548 24.9436 14.4029 24.6284 14.1966C24.1919 13.9107 23.8386 13.5121 23.6051 13.0419C23.3642 12.5384 23.2434 11.9848 23.2525 11.4255C23.2512 10.915 23.3403 10.4084 23.5154 9.92972C23.692 9.45256 23.9493 9.01019 24.2758 8.62244C24.6055 8.23528 25.0015 7.91166 25.4449 7.66716C25.8777 7.42682 26.3505 7.26897 26.8396 7.20148C27.2075 7.1488 27.5812 7.15351 27.9476 7.21545C28.302 7.27685 28.6434 7.39892 28.9572 7.57642L28.7799 9.38726ZM30.3558 13.9503V6.95818L34.6098 6.38281V7.82271L31.9573 8.18368V9.44809L34.2296 9.13897V10.5709L31.9573 10.88V12.2661L34.6472 11.9001V13.3739L30.3558 13.9503Z" fill="white"/>
<path d="M13.4693 22.9801L15.2446 22.7349L14.3642 20.6844L13.4693 22.9801ZM10.9414 25.5298L14.3815 17.9093L14.4777 17.8955L17.8456 24.5777L16.1626 24.809L15.7363 23.857L12.9978 24.2336L12.5619 25.3034L10.9414 25.5298ZM20.4678 18.5598L20.2474 18.5925V20.4442L20.5361 20.4017C20.8754 20.3739 21.1993 20.2443 21.4675 20.029C21.5717 19.9384 21.6546 19.8248 21.7103 19.6968C21.7659 19.5688 21.7928 19.4296 21.7889 19.2895C21.8023 19.1613 21.7796 19.0318 21.7235 18.9165C21.6674 18.8012 21.5802 18.7048 21.4723 18.6389C21.1531 18.5083 20.8027 18.4807 20.4678 18.5598V18.5598ZM18.6395 24.4699V17.5376L20.3715 17.2973C20.7912 17.2262 21.2177 17.2073 21.6417 17.241C21.9375 17.272 22.2228 17.3703 22.477 17.5287C22.7233 17.6765 22.9249 17.8918 23.0591 18.1505C23.1977 18.4172 23.2689 18.7153 23.266 19.0176C23.2728 19.3484 23.2113 19.677 23.0856 19.9817C22.9599 20.2864 22.7728 20.5603 22.5366 20.7853C21.9874 21.2921 21.2941 21.604 20.5592 21.6751C20.4716 21.684 20.4081 21.6938 20.3667 21.6988C20.3254 21.7037 20.284 21.6988 20.2474 21.7077V24.2435L18.6395 24.4699ZM26.3779 17.7472L26.1576 17.7798V19.6315L26.4463 19.589C26.7856 19.5612 27.1095 19.4316 27.3777 19.2163C27.4819 19.1258 27.5649 19.0123 27.6206 18.8842C27.6762 18.7562 27.7031 18.6169 27.6991 18.4768C27.7125 18.3486 27.6898 18.2192 27.6337 18.1038C27.5776 17.9885 27.4904 17.8922 27.3825 17.8263C27.0632 17.6948 26.7125 17.6662 26.377 17.7442L26.3779 17.7472ZM24.5497 23.6573V16.7249L26.2817 16.4847C26.7014 16.4135 27.1278 16.3946 27.5519 16.4283C27.8476 16.4593 28.133 16.5576 28.3871 16.716C28.6335 16.8639 28.8351 17.0792 28.9693 17.3379C29.1079 17.6045 29.1791 17.9026 29.1762 18.2049C29.183 18.5358 29.1215 18.8644 28.9958 19.1691C28.8701 19.4737 28.683 19.7476 28.4468 19.9726C27.8975 20.4793 27.2043 20.7913 26.4694 20.8624C26.3818 20.8723 26.3183 20.8812 26.2769 20.8861C26.2355 20.8911 26.1941 20.8861 26.1576 20.896V23.4249L24.5497 23.6573Z" fill="white"/>
</svg>
