<svg width="169" height="60" viewBox="0 0 169 60" fill="none" xmlns="http://www.w3.org/2000/svg">
<path d="M8.54531 44.8091C7.86962 44.8091 7.27343 44.6483 6.71699 44.367C6.16055 44.0857 5.88232 43.6437 5.88232 43.081V15.8339C5.88232 15.2311 6.16055 14.8292 6.71699 14.5479C7.27343 14.2666 7.90937 14.146 8.54531 14.146C9.22099 14.146 9.85692 14.2666 10.4134 14.5479C10.9698 14.8292 11.248 15.2311 11.248 15.8339V26.8051H20.5883V15.8339C20.5883 15.2311 20.8666 14.8292 21.423 14.5479C21.9795 14.2666 22.6154 14.146 23.2513 14.146C23.927 14.146 24.5629 14.2666 25.1194 14.5479C25.6758 14.8292 25.9541 15.2311 25.9541 15.8339V43.1212C25.9541 43.6838 25.6758 44.1259 25.1194 44.4072C24.5629 44.6885 23.927 44.8493 23.2513 44.8493C22.5756 44.8493 21.9795 44.6885 21.423 44.4072C20.8666 44.1259 20.5883 43.6838 20.5883 43.1212V31.065H11.248V43.1212C11.248 43.6838 10.9698 44.1259 10.4134 44.4072C9.85692 44.6483 9.26073 44.8091 8.54531 44.8091Z" fill="white"/>
<path d="M128.419 20.4153C127.624 20.4153 126.909 20.134 126.352 19.6115C125.756 19.0489 125.478 18.4461 125.478 17.8031C125.478 17.0797 125.756 16.4367 126.352 15.9545C126.949 15.432 127.624 15.1909 128.419 15.1909C129.214 15.1909 129.89 15.432 130.486 15.9545C131.042 16.4769 131.321 17.0797 131.321 17.8031C131.321 18.4863 131.042 19.0891 130.486 19.6115C129.89 20.1742 129.214 20.4153 128.419 20.4153ZM128.419 44.8091C127.664 44.8091 127.028 44.6082 126.511 44.2465C125.995 43.8848 125.756 43.4829 125.756 43.0811V26.564C125.756 26.0416 125.995 25.6397 126.511 25.3584C127.028 25.0369 127.664 24.9163 128.419 24.9163C129.174 24.9163 129.81 25.0771 130.327 25.3584C130.844 25.6799 131.122 26.0817 131.122 26.564V43.0811C131.122 43.4829 130.844 43.8848 130.327 44.2465C129.771 44.6484 129.135 44.8091 128.419 44.8091Z" fill="white"/>
<path d="M136.448 44.8092C135.693 44.8092 135.057 44.6083 134.54 44.2466C134.024 43.8849 133.785 43.483 133.785 43.0811V26.5641C133.785 26.0416 134.024 25.6398 134.54 25.3584C135.057 25.0369 135.693 24.9164 136.448 24.9164C137.124 24.9164 137.68 25.0771 138.117 25.3584C138.555 25.6799 138.793 26.0818 138.793 26.5641V27.8099C139.27 27.0061 139.946 26.2828 140.86 25.5996C141.774 24.9566 142.927 24.5949 144.318 24.5949C145.51 24.5949 146.544 24.9968 147.458 25.7603C148.372 26.5641 149.048 27.5688 149.485 28.7744C150.2 27.3276 151.114 26.2828 152.227 25.5996C153.34 24.9164 154.493 24.5547 155.685 24.5547C156.957 24.5547 158.149 24.8762 159.262 25.5594C160.375 26.2024 161.289 27.1669 162.005 28.4529C162.72 29.7389 163.078 31.266 163.078 33.0744V43.0008C163.078 43.4026 162.8 43.8045 162.283 44.1662C161.766 44.5279 161.13 44.7288 160.375 44.7288C159.66 44.7288 159.024 44.5279 158.507 44.1662C157.99 43.8045 157.712 43.4026 157.712 43.0008V33.1548C157.712 32.3109 157.553 31.6277 157.235 31.0651C156.917 30.5024 156.48 30.0604 155.963 29.7791C155.447 29.4978 154.89 29.337 154.334 29.337C153.777 29.337 153.261 29.4978 152.784 29.7791C152.307 30.0604 151.909 30.5024 151.552 31.0651C151.234 31.6277 151.035 32.3109 151.035 33.1146V43.1615C151.035 43.7643 150.757 44.1662 150.2 44.4475C149.644 44.7288 149.008 44.8494 148.372 44.8494C147.776 44.8494 147.18 44.7288 146.583 44.4475C145.987 44.1662 145.709 43.7643 145.709 43.1615V33.1548C145.709 32.3913 145.55 31.7081 145.232 31.1454C144.914 30.5828 144.517 30.1408 144 29.8594C143.483 29.5379 142.927 29.3772 142.37 29.3772C141.814 29.3772 141.297 29.4978 140.78 29.7791C140.264 30.0604 139.866 30.4623 139.548 31.0249C139.23 31.5875 139.071 32.2707 139.071 33.1146V43.041C139.071 43.4428 138.793 43.8447 138.276 44.2064C137.839 44.6485 137.203 44.8092 136.448 44.8092Z" fill="white"/>
<path d="M123.173 32.1099C122.696 31.0249 122.06 30.1407 121.265 29.4174C120.47 28.694 119.596 28.051 118.642 27.5687C117.688 27.0463 116.734 26.6042 115.82 26.2024C114.866 25.8005 114.031 25.4388 113.237 25.0369C112.442 24.635 111.806 24.193 111.329 23.7107C110.852 23.1883 110.613 22.5855 110.613 21.8621C110.613 21.1789 110.812 20.5761 111.17 20.134C111.527 19.692 112.084 19.2901 112.799 19.049C113.515 18.7677 114.349 18.6471 115.343 18.6471C116.496 18.6471 117.41 18.7677 118.086 19.049C118.761 19.3303 119.318 19.5714 119.755 19.8527C120.192 20.134 120.629 20.2546 121.066 20.2546C121.583 20.2546 121.981 20.0939 122.299 19.7322C122.617 19.3705 122.855 18.9686 123.014 18.5265C123.173 18.0845 123.253 17.6826 123.253 17.3611C123.253 16.6779 122.974 16.1555 122.418 15.7134C121.861 15.2714 121.146 14.9499 120.272 14.6685C119.397 14.4274 118.523 14.2265 117.648 14.1461C116.774 14.0657 116.019 13.9854 115.383 13.9854C114.707 13.9854 112.68 13.9854 112.442 14.2667C111.567 15.2714 107.95 18.7677 105.844 20.2948C105.526 20.4957 105.407 20.978 105.367 21.3397C105.327 21.6612 105.327 22.0229 105.327 22.3845C105.327 23.7911 105.566 24.9967 106.042 26.0014C106.519 26.9659 107.155 27.8099 107.95 28.4931C108.745 29.1762 109.62 29.7389 110.574 30.2211C111.527 30.7034 112.481 31.1454 113.435 31.5473C114.389 31.9492 115.264 32.3912 116.058 32.8333C116.853 33.2754 117.489 33.7978 117.966 34.4408C118.443 35.0436 118.682 35.8072 118.682 36.6913C118.682 37.5353 118.483 38.2184 118.046 38.7409C117.609 39.2633 117.052 39.6652 116.337 39.9465C115.621 40.2278 114.866 40.3484 114.031 40.3484C112.998 40.3484 112.084 40.1876 111.368 39.8661C110.653 39.5446 110.057 39.1829 109.54 38.7409C109.023 38.2988 108.586 37.9371 108.229 37.6156C107.831 37.2941 107.434 37.1334 106.996 37.1334C106.559 37.1334 106.162 37.2941 105.804 37.6156C105.446 37.9371 105.168 38.339 104.969 38.7811C104.771 39.2231 104.651 39.6652 104.651 40.0671C104.651 40.8708 105.089 41.6746 105.923 42.4783C106.758 43.2821 107.911 43.9251 109.381 44.4877C110.852 45.0101 112.442 45.2914 114.27 45.2914C116.178 45.2914 117.887 44.9298 119.357 44.2466C120.828 43.5634 122.02 42.5587 122.855 41.1923C123.729 39.8259 124.127 38.1783 124.127 36.1689C123.888 34.5212 123.65 33.195 123.173 32.1099Z" fill="white"/>
<path d="M69.7143 29.8996C56.9955 29.8996 44.9128 25.5995 35.6122 17.9237V19.5312C35.6122 21.3396 34.1813 22.7864 32.3928 22.7864C30.6042 22.7864 29.1733 21.3396 29.1733 19.5312V10.3684C29.1733 9.00204 30.008 7.79641 31.2401 7.31416C32.4723 6.83191 33.9031 7.1936 34.7775 8.19829C43.3229 17.8835 56.0416 23.4294 69.7143 23.4294C83.3471 23.4294 96.0658 17.8835 104.651 8.19829C105.843 6.8721 107.87 6.75154 109.182 7.95716C110.494 9.16279 110.613 11.2124 109.421 12.5385C99.643 23.5901 85.1754 29.8996 69.7143 29.8996Z" fill="#F49819"/>
<path d="M102.823 22.3442C101.432 23.1882 100.041 24.1527 98.6099 24.876C98.3317 24.9966 98.133 25.2779 98.0932 25.5592L95.6687 38.0174L92.0518 28.8144C91.8929 28.4125 91.4557 28.2116 91.0582 28.3322C89.9056 28.734 88.7529 29.0957 87.5605 29.4172C87.0836 29.5378 86.8054 30.1004 87.0438 30.5425L92.9263 43.2819C92.8468 44.5278 92.5685 45.5726 92.1313 46.3764C91.6941 47.1801 91.1377 47.8231 90.5017 48.2652C89.8658 48.7073 89.2299 49.0288 88.5939 49.1895C87.958 49.3503 87.4413 49.4306 86.9644 49.4306C86.4477 49.4306 86.1297 49.6718 85.8912 50.1138C85.6925 50.5559 85.5732 51.0783 85.5732 51.7213C85.5732 52.726 85.8117 53.369 86.2887 53.6503C86.7656 53.9316 87.3221 54.0522 88.0375 54.0522C89.9056 54.0522 91.4159 53.7307 92.5685 53.1279C93.7212 52.5251 94.6751 51.6811 95.3508 50.6764C96.0662 49.6718 96.6624 48.5063 97.0996 47.2605C97.497 46.1754 97.9342 45.0904 98.3715 44.0053C98.4907 43.6838 98.6099 43.3623 98.6894 43.0006C99.3254 40.4286 102.187 28.6537 103.697 24.5947C103.777 24.434 103.817 24.233 103.817 23.9517C103.817 23.5097 103.538 21.9022 102.823 22.3442Z" fill="white"/>
<path d="M33.4265 45.1706C31.9558 45.1706 30.684 44.7285 29.6108 43.8042C28.5377 42.8799 28.021 41.4733 28.021 39.5845C28.021 37.977 28.4185 36.7312 29.2531 35.847C30.0878 34.9629 31.2007 34.3199 32.6713 33.9582C34.1419 33.5965 35.8112 33.3956 37.719 33.3956H39.4281V32.833C39.4281 32.2302 39.3089 31.6274 39.0704 31.0245C38.8319 30.4217 38.4742 29.9395 37.9575 29.5376C37.4408 29.1357 36.7254 28.9348 35.7715 28.9348C34.7381 28.9348 33.9034 29.0554 33.347 29.2563C32.7905 29.4572 32.3533 29.6984 32.0353 29.8993C31.7174 30.1404 31.3994 30.2208 31.0417 30.2208C30.4455 30.2208 30.0083 29.9395 29.6903 29.3367C29.3724 28.7339 29.2134 28.131 29.2134 27.5282C29.2134 26.9254 29.5711 26.403 30.2865 25.9609C31.0019 25.5188 31.8366 25.1572 32.87 24.8758C33.9034 24.6347 34.8971 24.5142 35.851 24.5142C37.9972 24.5142 39.7461 24.916 41.0577 25.6796C42.3693 26.4834 43.3232 27.488 43.9194 28.6937C44.5156 29.9395 44.7938 31.2657 44.7938 32.6722V42.9602C44.7938 43.4425 44.5553 43.8444 44.0386 44.1659C43.5219 44.4874 42.9257 44.6883 42.1706 44.6883C41.4949 44.6883 40.8987 44.5276 40.4615 44.1659C40.0243 43.8444 39.7858 43.4425 39.7858 42.9602V41.7546C39.0306 42.6387 38.1562 43.4023 37.1626 44.0453C36.0894 44.8491 34.8573 45.1706 33.4265 45.1706ZM35.5727 41.1518C36.1689 41.1518 36.7254 40.9509 37.3216 40.549C37.9178 40.1471 38.3947 39.6649 38.7922 39.0219C39.1896 38.419 39.3884 37.776 39.3884 37.0929V36.2087H38.7524C37.8383 36.2087 36.9638 36.2489 36.1292 36.3695C35.2945 36.49 34.6188 36.7312 34.1021 37.0929C33.5854 37.4545 33.347 38.0574 33.347 38.8209C33.347 39.5845 33.5457 40.1873 33.9829 40.549C34.4598 40.9911 34.9765 41.1518 35.5727 41.1518Z" fill="white"/>
<path d="M65.4216 33.1544C65.4216 32.9133 65.4216 33.4357 65.3819 33.1946C65.3421 32.5516 64.8254 32.0693 64.1895 32.0292C63.1164 31.9488 62.083 31.788 61.0098 31.6675C60.4931 31.5871 60.0559 31.989 60.0559 32.5114V33.1946V35.8872V36.5703C60.0559 37.2133 59.8969 37.8162 59.5392 38.419C59.1815 39.0218 58.7443 39.504 58.2276 39.8657C57.6712 40.2274 57.075 40.4283 56.439 40.4283C55.7236 40.4283 55.0877 40.2274 54.5312 39.8255C53.9748 39.4237 53.5376 38.9816 53.2196 38.4993C52.9016 38.0171 52.7427 37.6152 52.7427 37.3339V35.6862V33.1544V30.3815C52.7427 30.06 52.5042 29.7385 52.1862 29.6581C51.0336 29.3366 49.9207 28.9749 48.8078 28.573C48.1321 28.3319 47.377 28.8543 47.377 29.6179V52.4444C47.377 52.8463 47.6154 53.2482 48.1321 53.6099C48.6488 53.9715 49.245 54.1725 50.0002 54.1725C50.7554 54.1725 51.431 53.9715 51.9477 53.6099C52.4644 53.2482 52.7427 52.8463 52.7427 52.4444V43.2013C52.7427 42.8396 53.1799 42.6789 53.3786 42.9602C53.7761 43.4424 54.253 43.8845 54.8492 44.2462C55.8429 44.9294 56.9557 45.2509 58.1879 45.2509C59.4995 45.2509 60.6919 44.849 61.8048 44.0452C62.9176 43.2415 63.7921 42.1966 64.4677 40.8704C65.1832 39.504 65.4614 37.9367 65.4614 36.3694L65.4216 33.1544Z" fill="white"/>
<path d="M85.5333 33.1546C85.5333 32.4312 85.4538 32.3106 85.3345 31.6274C85.1755 30.9041 84.4601 30.5022 83.7447 30.6227C82.8703 30.8237 82.0356 30.9844 81.1612 31.105C80.6048 31.1854 80.2073 31.6676 80.2073 32.2303V33.0742V34.7219V36.5705C80.2073 37.2135 80.0483 37.8163 79.6906 38.4191C79.3329 39.0219 78.8957 39.5042 78.379 39.8659C77.8225 40.2276 77.2263 40.4285 76.5904 40.4285C75.875 40.4285 75.239 40.2276 74.6826 39.8257C74.1262 39.4238 73.689 38.9818 73.371 38.4995C73.053 38.0173 72.894 37.6154 72.894 37.3341V33.9583C72.894 33.7976 72.894 33.677 72.894 33.5564C72.9735 32.8733 72.4568 32.2704 71.7811 32.2704C71.2644 32.2704 70.7477 32.3106 70.231 32.3106C69.6746 32.3106 69.1579 32.3106 68.6412 32.3106C68.0053 32.3106 67.5283 32.7929 67.5283 33.4359V52.4044C67.5283 52.8063 67.7668 53.2082 68.2835 53.5698C68.8002 53.9315 69.3964 54.1325 70.1516 54.1325C70.9067 54.1325 71.5824 53.9315 72.0991 53.5698C72.6158 53.2082 72.894 52.8063 72.894 52.4044V43.0809C72.894 42.7594 73.2915 42.5986 73.4902 42.8398C73.8877 43.322 74.4044 43.7641 75.0006 44.2061C75.9942 44.8893 77.1071 45.2108 78.3392 45.2108C79.6509 45.2108 80.8432 44.809 81.9561 44.0052C83.069 43.2015 83.9434 42.1566 84.6191 40.8304C85.3345 39.464 85.6128 37.8967 85.6128 36.3696L85.5333 33.1546Z" fill="white"/>
<path d="M56.2804 5.94781C49.0069 6.22912 47.6556 12.3778 47.3773 14.6685C47.3376 15.1508 47.5761 15.6732 48.0133 15.8741C49.1262 16.4368 50.7955 17.2003 51.9481 17.6826C52.3456 17.8433 52.743 17.562 52.743 17.1199V16.7181V15.7134V14.6685C52.743 13.2619 53.538 12.0563 54.6906 11.4133C54.7303 11.3731 54.8098 11.3329 54.8496 11.3329C54.9291 11.2928 54.9688 11.2526 55.0483 11.2526C55.2073 11.1722 55.3663 11.132 55.565 11.0918C55.6445 11.0516 55.7637 11.0516 55.8432 11.0516C55.8432 11.0516 55.8432 11.0516 55.883 11.0516C56.042 11.0114 56.2407 11.0114 56.4394 11.0114C58.4665 11.0114 60.0961 12.6591 60.0961 14.7087V15.2311V16.7583V19.4106C60.0961 19.8527 60.414 20.2144 60.8115 20.2948C61.8846 20.4957 63.395 20.7368 64.4681 20.8574C64.9848 20.8976 65.422 20.4957 65.422 19.9733V15.1508C65.3823 9.96656 61.2487 5.74687 56.2804 5.94781Z" fill="white"/>
<path d="M76.9881 5.94763C71.7813 5.66632 67.4888 9.96638 67.4888 15.3113V20.0936C67.4888 20.6563 67.926 21.1385 68.4824 21.1787C68.9196 21.1787 71.2646 21.1787 71.8211 21.1787C72.3775 21.1787 72.8147 20.6965 72.8147 20.0936V15.4721C72.8147 15.1104 72.8545 14.7889 72.8942 14.4674C72.9737 13.2618 73.6097 12.2169 74.5636 11.6141C74.6431 11.5739 74.7225 11.5337 74.802 11.4935C74.9213 11.4131 75.0803 11.3328 75.1995 11.2926C75.2392 11.2524 75.3187 11.2524 75.3585 11.2524C75.7162 11.1318 76.1137 11.0514 76.5111 11.0514C78.5382 11.0514 80.1677 12.6991 80.1677 14.7487V14.9898C80.1677 15.1506 80.2075 15.3113 80.2075 15.5123V19.1291C80.2075 19.6918 80.7242 20.1338 81.2806 19.9731C82.3935 19.6918 83.9039 19.3301 84.977 18.9684C85.3347 18.8478 85.5732 18.4861 85.5732 18.1245V15.6328C85.5732 10.529 81.8371 6.18875 76.9881 5.94763Z" fill="white"/>
</svg>
