<svg width="227" height="80" viewBox="0 0 227 80" fill="none" xmlns="http://www.w3.org/2000/svg">
<path d="M11.4781 59.7455C10.5706 59.7455 9.76978 59.5311 9.02236 59.156C8.27495 58.781 7.90125 58.1915 7.90125 57.4414V21.1118C7.90125 20.3081 8.27495 19.7722 9.02236 19.3972C9.76978 19.0221 10.624 18.8613 11.4781 18.8613C12.3857 18.8613 13.2399 19.0221 13.9873 19.3972C14.7347 19.7722 15.1084 20.3081 15.1084 21.1118V35.7401H27.6543V21.1118C27.6543 20.3081 28.028 19.7722 28.7754 19.3972C29.5228 19.0221 30.377 18.8613 31.2312 18.8613C32.1388 18.8613 32.993 19.0221 33.7404 19.3972C34.4878 19.7722 34.8615 20.3081 34.8615 21.1118V57.495C34.8615 58.2451 34.4878 58.8345 33.7404 59.2096C32.993 59.5847 32.1388 59.799 31.2312 59.799C30.3236 59.799 29.5228 59.5847 28.7754 59.2096C28.028 58.8345 27.6543 58.2451 27.6543 57.495V41.4199H15.1084V57.495C15.1084 58.2451 14.7347 58.8345 13.9873 59.2096C13.2399 59.5311 12.4391 59.7455 11.4781 59.7455Z" fill="#222222"/>
<path d="M172.492 27.2202C171.425 27.2202 170.464 26.8452 169.716 26.1486C168.915 25.3984 168.542 24.5946 168.542 23.7373C168.542 22.7728 168.915 21.9155 169.716 21.2725C170.517 20.5759 171.425 20.2544 172.492 20.2544C173.56 20.2544 174.468 20.5759 175.268 21.2725C176.016 21.9691 176.389 22.7728 176.389 23.7373C176.389 24.6482 176.016 25.452 175.268 26.1486C174.468 26.8987 173.56 27.2202 172.492 27.2202ZM172.492 59.7454C171.478 59.7454 170.624 59.4774 169.93 58.9952C169.236 58.5129 168.915 57.9771 168.915 57.4413V35.4185C168.915 34.7219 169.236 34.1861 169.93 33.811C170.624 33.3823 171.478 33.2216 172.492 33.2216C173.507 33.2216 174.361 33.4359 175.055 33.811C175.749 34.2397 176.123 34.7755 176.123 35.4185V57.4413C176.123 57.9771 175.749 58.5129 175.055 58.9952C174.307 59.531 173.453 59.7454 172.492 59.7454Z" fill="#222222"/>
<path d="M183.276 59.7453C182.262 59.7453 181.408 59.4774 180.714 58.9951C180.02 58.5129 179.699 57.977 179.699 57.4412V35.4184C179.699 34.7218 180.02 34.186 180.714 33.8109C181.408 33.3823 182.262 33.2215 183.276 33.2215C184.184 33.2215 184.931 33.4358 185.519 33.8109C186.106 34.2396 186.426 34.7754 186.426 35.4184V37.0795C187.067 36.0078 187.974 35.0433 189.202 34.1324C190.43 33.2751 191.978 32.7928 193.847 32.7928C195.449 32.7928 196.837 33.3287 198.064 34.3468C199.292 35.4184 200.2 36.758 200.787 38.3655C201.748 36.4365 202.976 35.0433 204.471 34.1324C205.966 33.2215 207.514 32.7393 209.116 32.7393C210.824 32.7393 212.425 33.1679 213.92 34.0788C215.415 34.9362 216.643 36.2222 217.604 37.9368C218.565 39.6515 219.045 41.6877 219.045 44.0989V57.334C219.045 57.8699 218.672 58.4057 217.978 58.888C217.284 59.3702 216.429 59.6381 215.415 59.6381C214.454 59.6381 213.6 59.3702 212.906 58.888C212.212 58.4057 211.838 57.8699 211.838 57.334V44.2061C211.838 43.0809 211.625 42.1699 211.198 41.4198C210.77 40.6696 210.183 40.0802 209.489 39.7051C208.795 39.33 208.048 39.1157 207.3 39.1157C206.553 39.1157 205.859 39.33 205.218 39.7051C204.578 40.0802 204.044 40.6696 203.563 41.4198C203.136 42.1699 202.869 43.0809 202.869 44.1525V57.5484C202.869 58.3521 202.496 58.888 201.748 59.263C201.001 59.6381 200.147 59.7989 199.292 59.7989C198.492 59.7989 197.691 59.6381 196.89 59.263C196.089 58.888 195.715 58.3521 195.715 57.5484V44.2061C195.715 43.188 195.502 42.2771 195.075 41.5269C194.648 40.7768 194.114 40.1874 193.42 39.8123C192.726 39.3836 191.978 39.1693 191.231 39.1693C190.484 39.1693 189.79 39.33 189.096 39.7051C188.401 40.0802 187.868 40.616 187.441 41.3662C187.013 42.1164 186.8 43.0273 186.8 44.1525V57.3876C186.8 57.9235 186.426 58.4593 185.732 58.9415C185.145 59.531 184.291 59.7453 183.276 59.7453Z" fill="#222222"/>
<path d="M165.445 42.8131C164.805 41.3663 163.95 40.1875 162.883 39.223C161.815 38.2585 160.64 37.4012 159.359 36.7582C158.078 36.0616 156.797 35.4722 155.569 34.9363C154.287 34.4005 153.166 33.9182 152.099 33.3824C151.031 32.8466 150.177 32.2572 149.536 31.6142C148.895 30.9176 148.575 30.1138 148.575 29.1493C148.575 28.2384 148.842 27.4346 149.322 26.8452C149.803 26.2558 150.55 25.72 151.511 25.3985C152.472 25.0234 153.593 24.8626 154.928 24.8626C156.476 24.8626 157.704 25.0234 158.612 25.3985C159.519 25.7736 160.267 26.0951 160.854 26.4701C161.441 26.8452 162.028 27.006 162.616 27.006C163.31 27.006 163.844 26.7916 164.271 26.3094C164.698 25.8271 165.018 25.2913 165.232 24.7019C165.445 24.1125 165.552 23.5766 165.552 23.148C165.552 22.2371 165.178 21.5405 164.431 20.9511C163.683 20.3616 162.722 19.933 161.548 19.5579C160.373 19.2364 159.199 18.9685 158.024 18.8613C156.85 18.7541 155.836 18.647 154.981 18.647C154.074 18.647 151.351 18.647 151.031 19.0221C149.856 20.3616 144.998 25.0234 142.169 27.0596C141.742 27.3275 141.581 27.9705 141.528 28.4527C141.475 28.8814 141.475 29.3637 141.475 29.8459C141.475 31.7213 141.795 33.3288 142.436 34.6684C143.076 35.9544 143.93 37.0797 144.998 37.9906C146.066 38.9015 147.24 39.6517 148.522 40.2947C149.803 40.9377 151.084 41.5271 152.365 42.0629C153.647 42.5987 154.821 43.1882 155.889 43.7776C156.957 44.367 157.811 45.0636 158.452 45.9209C159.092 46.7247 159.413 47.7428 159.413 48.9216C159.413 50.0468 159.146 50.9578 158.558 51.6543C157.971 52.3509 157.224 52.8868 156.263 53.2618C155.302 53.6369 154.287 53.7977 153.166 53.7977C151.778 53.7977 150.55 53.5833 149.589 53.1547C148.628 52.726 147.828 52.2438 147.134 51.6543C146.44 51.0649 145.852 50.5827 145.372 50.154C144.838 49.7253 144.304 49.511 143.717 49.511C143.13 49.511 142.596 49.7253 142.115 50.154C141.635 50.5827 141.261 51.1185 140.994 51.7079C140.727 52.2973 140.567 52.8868 140.567 53.4226C140.567 54.4943 141.154 55.5659 142.275 56.6376C143.397 57.7093 144.945 58.5666 146.92 59.3168C148.895 60.0133 151.031 60.3884 153.487 60.3884C156.049 60.3884 158.345 59.9062 160.32 58.9953C162.295 58.0844 163.897 56.7448 165.018 54.9229C166.193 53.1011 166.726 50.9042 166.726 48.225C166.406 46.0281 166.086 44.2598 165.445 42.8131Z" fill="#222222"/>
<path d="M93.6402 39.866C76.5564 39.866 60.3269 34.1326 47.8344 23.8981V26.0415C47.8344 28.4527 45.9125 30.3817 43.5101 30.3817C41.1077 30.3817 39.1858 28.4527 39.1858 26.0415V13.8245C39.1858 12.0026 40.3069 10.3951 41.9619 9.75213C43.6169 9.10913 45.5388 9.59138 46.7133 10.931C58.1914 23.8446 75.2752 31.2391 93.6402 31.2391C111.952 31.2391 129.036 23.8446 140.567 10.931C142.169 9.16272 144.891 9.00197 146.653 10.6095C148.415 12.217 148.575 14.9497 146.973 16.718C133.84 31.4534 114.408 39.866 93.6402 39.866Z" fill="#F49819"/>
<path d="M138.111 29.7922C136.243 30.9175 134.374 32.2035 132.452 33.168C132.079 33.3287 131.812 33.7038 131.758 34.0789L128.502 50.6897L123.643 38.4191C123.43 37.8833 122.843 37.6154 122.309 37.7761C120.761 38.312 119.212 38.7942 117.611 39.2229C116.97 39.3836 116.596 40.1338 116.917 40.7232L124.818 57.7092C124.711 59.3703 124.338 60.7634 123.75 61.8351C123.163 62.9068 122.416 63.7641 121.561 64.3535C120.707 64.9429 119.853 65.3716 118.999 65.5859C118.145 65.8003 117.451 65.9074 116.81 65.9074C116.116 65.9074 115.689 66.2289 115.369 66.8183C115.102 67.4078 114.941 68.1043 114.941 68.9617C114.941 70.3013 115.262 71.1586 115.902 71.5337C116.543 71.9088 117.29 72.0695 118.251 72.0695C120.761 72.0695 122.789 71.6409 124.338 70.8371C125.886 70.0334 127.167 68.9081 128.075 67.5685C129.036 66.2289 129.836 64.675 130.424 63.0139C130.957 61.5672 131.545 60.1204 132.132 58.6737C132.292 58.245 132.452 57.8163 132.559 57.3341C133.413 53.9048 137.257 38.2048 139.286 32.7929C139.393 32.5786 139.446 32.3106 139.446 31.9356C139.446 31.3461 139.072 29.2028 138.111 29.7922Z" fill="#222222"/>
<path d="M44.8982 60.2277C42.9228 60.2277 41.2145 59.6382 39.773 58.4058C38.3316 57.1734 37.6376 55.298 37.6376 52.7796C37.6376 50.6362 38.1714 48.9751 39.2926 47.7963C40.4137 46.6175 41.9085 45.7601 43.8838 45.2779C45.8591 44.7956 48.1014 44.5277 50.6639 44.5277H52.9595V43.7776C52.9595 42.9738 52.7994 42.17 52.4791 41.3663C52.1587 40.5625 51.6783 39.9195 50.9842 39.3837C50.2902 38.8479 49.3292 38.58 48.048 38.58C46.6599 38.58 45.5388 38.7407 44.7914 39.0086C44.044 39.2765 43.4567 39.598 43.0296 39.866C42.6025 40.1875 42.1754 40.2946 41.695 40.2946C40.8942 40.2946 40.3069 39.9195 39.8798 39.1158C39.4527 38.312 39.2392 37.5083 39.2392 36.7045C39.2392 35.9008 39.7197 35.2042 40.6806 34.6148C41.6416 34.0254 42.7627 33.5431 44.1507 33.168C45.5388 32.8465 46.8735 32.6858 48.1547 32.6858C51.0376 32.6858 53.3866 33.2216 55.1484 34.2397C56.9102 35.3114 58.1914 36.651 58.9922 38.2585C59.793 39.9195 60.1667 41.6878 60.1667 43.5632V57.2806C60.1667 57.9236 59.8464 58.4594 59.1524 58.8881C58.4584 59.3167 57.6576 59.5847 56.6432 59.5847C55.7356 59.5847 54.9348 59.3703 54.3476 58.8881C53.7603 58.4594 53.44 57.9236 53.44 57.2806V55.6731C52.4257 56.8519 51.2512 57.87 49.9165 58.7273C48.4751 59.799 46.8201 60.2277 44.8982 60.2277ZM47.781 54.8693C48.5818 54.8693 49.3292 54.6014 50.13 54.0656C50.9308 53.5297 51.5715 52.8867 52.1054 52.0294C52.6392 51.2256 52.9062 50.3683 52.9062 49.4574V48.2786H52.052C50.8241 48.2786 49.6496 48.3321 48.5284 48.4929C47.4073 48.6536 46.4998 48.9751 45.8057 49.4574C45.1117 49.9396 44.7914 50.7434 44.7914 51.7615C44.7914 52.7796 45.0583 53.5833 45.6456 54.0656C46.2862 54.655 46.9802 54.8693 47.781 54.8693Z" fill="#222222"/>
<path d="M87.8744 44.2062C87.8744 43.8847 87.8744 44.5813 87.8211 44.2598C87.7677 43.4024 87.0736 42.7594 86.2195 42.7059C84.778 42.5987 83.39 42.3844 81.9485 42.2236C81.2545 42.1164 80.6672 42.6523 80.6672 43.3489V44.2598V47.8499V48.7608C80.6672 49.6181 80.4537 50.4219 79.9732 51.2256C79.4927 52.0294 78.9055 52.6724 78.2115 53.1546C77.464 53.6369 76.6632 53.9048 75.8091 53.9048C74.8481 53.9048 73.9939 53.6369 73.2465 53.101C72.4991 52.5652 71.9118 51.9758 71.4847 51.3328C71.0576 50.6898 70.8441 50.154 70.8441 49.7789V47.582V44.2062V40.5089C70.8441 40.0803 70.5238 39.6516 70.0967 39.5444C68.5485 39.1158 67.0537 38.6335 65.5588 38.0977C64.6513 37.7762 63.6369 38.4728 63.6369 39.4909V69.9262C63.6369 70.4621 63.9572 70.9979 64.6512 71.4801C65.3453 71.9624 66.1461 72.2303 67.1604 72.2303C68.1748 72.2303 69.0823 71.9624 69.7764 71.4801C70.4704 70.9979 70.8441 70.4621 70.8441 69.9262V57.602C70.8441 57.1198 71.4314 56.9055 71.6983 57.2805C72.2322 57.9235 72.8728 58.513 73.6736 58.9952C75.0083 59.9061 76.5031 60.3348 78.1581 60.3348C79.9198 60.3348 81.5214 59.799 83.0163 58.7273C84.5111 57.6556 85.6856 56.2625 86.5932 54.4942C87.5541 52.6724 87.9278 50.5826 87.9278 48.4929L87.8744 44.2062Z" fill="#222222"/>
<path d="M114.888 44.2062C114.888 43.2417 114.781 43.081 114.621 42.1701C114.408 41.2056 113.447 40.6697 112.486 40.8305C111.311 41.0984 110.19 41.3127 109.016 41.4735C108.268 41.5807 107.734 42.2237 107.734 42.9738V44.0991V46.296V48.7608C107.734 49.6182 107.521 50.4219 107.04 51.2257C106.56 52.0294 105.972 52.6724 105.278 53.1547C104.531 53.6369 103.73 53.9048 102.876 53.9048C101.915 53.9048 101.061 53.6369 100.314 53.1011C99.5661 52.5653 98.9789 51.9758 98.5518 51.3328C98.1247 50.6898 97.9111 50.154 97.9111 49.7789V45.2779C97.9111 45.0636 97.9111 44.9028 97.9111 44.7421C98.0179 43.8312 97.3239 43.0274 96.4163 43.0274C95.7223 43.0274 95.0282 43.081 94.3342 43.081C93.5868 43.081 92.8928 43.081 92.1987 43.081C91.3446 43.081 90.7039 43.724 90.7039 44.5813V69.8727C90.7039 70.4085 91.0242 70.9444 91.7183 71.4266C92.4123 71.9089 93.2131 72.1768 94.2274 72.1768C95.2418 72.1768 96.1494 71.9089 96.8434 71.4266C97.5374 70.9444 97.9111 70.4085 97.9111 69.8727V57.4413C97.9111 57.0127 98.445 56.7983 98.7119 57.1198C99.2458 57.7628 99.9398 58.3523 100.741 58.9417C102.075 59.8526 103.57 60.2813 105.225 60.2813C106.987 60.2813 108.588 59.7454 110.083 58.6738C111.578 57.6021 112.753 56.2089 113.66 54.4407C114.621 52.6188 114.995 50.5291 114.995 48.4929L114.888 44.2062Z" fill="#222222"/>
<path d="M75.5955 7.93033C65.8257 8.30541 64.0106 16.5037 63.6369 19.5579C63.5835 20.2009 63.9038 20.8975 64.4911 21.1654C65.9859 21.9156 68.2281 22.9337 69.7763 23.5767C70.3102 23.791 70.8441 23.4159 70.8441 22.8265V22.2907V20.9511V19.5579C70.8441 17.6825 71.9118 16.075 73.46 15.2177C73.5134 15.1641 73.6202 15.1105 73.6736 15.1105C73.7803 15.0569 73.8337 15.0033 73.9405 15.0033C74.154 14.8962 74.3676 14.8426 74.6345 14.789C74.7413 14.7354 74.9014 14.7354 75.0082 14.7354C75.0082 14.7354 75.0082 14.7354 75.0616 14.7354C75.2752 14.6818 75.5421 14.6818 75.809 14.6818C78.5317 14.6818 80.7206 16.8788 80.7206 19.6115V20.3081V22.3443V25.8808C80.7206 26.4702 81.1477 26.9524 81.6815 27.0596C83.123 27.3275 85.1517 27.649 86.5931 27.8098C87.2871 27.8633 87.8744 27.3275 87.8744 26.6309V20.2009C87.821 13.2887 82.2688 7.66241 75.5955 7.93033Z" fill="#222222"/>
<path d="M103.41 7.93025C96.4163 7.55517 90.6505 13.2886 90.6505 20.4152V26.7916C90.6505 27.5418 91.2378 28.1848 91.9852 28.2384C92.5725 28.2384 95.7223 28.2384 96.4697 28.2384C97.2171 28.2384 97.8043 27.5954 97.8043 26.7916V20.6295C97.8043 20.1473 97.8577 19.7186 97.9111 19.2899C98.0179 17.6824 98.8721 16.2893 100.153 15.4855C100.26 15.4319 100.367 15.3783 100.474 15.3248C100.634 15.2176 100.847 15.1104 101.008 15.0568C101.061 15.0033 101.168 15.0033 101.221 15.0033C101.702 14.8425 102.235 14.7353 102.769 14.7353C105.492 14.7353 107.681 16.9323 107.681 19.665V19.9865C107.681 20.2009 107.734 20.4152 107.734 20.6831V25.5056C107.734 26.2558 108.428 26.8452 109.176 26.6309C110.671 26.2558 112.699 25.7735 114.141 25.2913C114.621 25.1305 114.941 24.6483 114.941 24.166V20.8439C114.941 14.0388 109.923 8.25175 103.41 7.93025Z" fill="#222222"/>
</svg>
