<svg width="40" height="40" viewBox="0 0 40 40" fill="none" xmlns="http://www.w3.org/2000/svg">
<g clip-path="url(#clip0_413_840)">
<path d="M20 0C16.0218 0 12.2064 1.58035 9.3934 4.3934C6.58035 7.20644 5 11.0218 5 15C5 26.0667 18.8333 39.2167 19.4333 39.7667C19.5883 39.9144 19.7942 39.9968 20.0083 39.9968C20.2225 39.9968 20.4284 39.9144 20.5833 39.7667C21.1667 39.2167 35 26.0667 35 15C35 11.0218 33.4196 7.20644 30.6066 4.3934C27.7936 1.58035 23.9782 0 20 0ZM20 23.3333C18.3518 23.3333 16.7407 22.8446 15.3702 21.9289C13.9998 21.0132 12.9317 19.7117 12.301 18.189C11.6703 16.6663 11.5052 14.9908 11.8268 13.3742C12.1483 11.7577 12.942 10.2729 14.1074 9.10744C15.2729 7.94201 16.7577 7.14833 18.3742 6.82679C19.9908 6.50525 21.6663 6.67027 23.189 7.301C24.7117 7.93173 26.0132 8.99984 26.9289 10.3702C27.8446 11.7407 28.3333 13.3518 28.3333 15C28.3333 16.0943 28.1178 17.178 27.699 18.189C27.2802 19.2001 26.6664 20.1187 25.8926 20.8926C25.1187 21.6664 24.2001 22.2802 23.189 22.699C22.178 23.1178 21.0943 23.3333 20 23.3333Z" fill="#E69E44"/>
</g>
<defs>
<clipPath id="clip0_413_840">
<rect width="40" height="40" fill="white"/>
</clipPath>
</defs>
</svg>
