<svg width="15" height="15" viewBox="0 0 15 15" fill="none" xmlns="http://www.w3.org/2000/svg">
<g clip-path="url(#clip0_112_1134)">
<path d="M3.6335 14.4673C3.48011 14.4673 3.3278 14.4194 3.1978 14.3254C2.95565 14.15 2.84254 13.8483 2.90844 13.5572L3.8091 9.58984L0.75464 6.91115C0.530116 6.71514 0.444344 6.40474 0.536525 6.12072C0.628705 5.83724 0.879505 5.63653 1.17645 5.60908L5.21787 5.24217L6.81571 1.50293C6.93353 1.2282 7.20184 1.05078 7.49996 1.05078C7.79808 1.05078 8.0664 1.2282 8.18421 1.50229L9.78205 5.24217L13.8228 5.60908C14.1204 5.63589 14.3712 5.83724 14.4634 6.12072C14.5556 6.40421 14.4703 6.71514 14.2458 6.91115L11.1914 9.5893L12.092 13.5566C12.158 13.8483 12.0448 14.15 11.8028 14.3249C11.5613 14.4999 11.2392 14.5133 10.9849 14.3605L7.49996 12.2779L4.01504 14.3617C3.89722 14.4316 3.76595 14.4673 3.6335 14.4673ZM7.49996 11.3808C7.63241 11.3808 7.76358 11.4164 7.8815 11.4863L11.1704 13.4534L10.3204 9.70883C10.2597 9.44232 10.3502 9.16407 10.5561 8.98377L13.4402 6.45441L9.6245 6.1079C9.34977 6.0828 9.1135 5.91008 9.00615 5.65693L7.49996 2.12822L5.99196 5.65747C5.88578 5.90891 5.64951 6.08163 5.37543 6.10673L1.55916 6.45323L4.44315 8.9826C4.64973 9.16343 4.74009 9.44115 4.67889 9.70829L3.8295 13.4528L7.11842 11.4863C7.23624 11.4164 7.36751 11.3808 7.49996 11.3808ZM5.18701 5.31449C5.18701 5.31449 5.18701 5.31513 5.18636 5.31566L5.18701 5.31449ZM9.81174 5.31278L9.81238 5.31395C9.81238 5.31331 9.81238 5.31331 9.81174 5.31278Z" fill="#FFA331"/>
<path d="M3.63349 14.75C3.48011 14.75 3.32779 14.7001 3.1978 14.602C2.95565 14.4189 2.84254 14.1041 2.90844 13.8004L3.8091 9.66042L0.754639 6.86523C0.530116 6.66071 0.444344 6.3368 0.536525 6.04043C0.628705 5.74462 0.879505 5.53519 1.17645 5.50654L5.21787 5.12368L6.8157 1.22181C6.93352 0.935134 7.20184 0.75 7.49995 0.75C7.79807 0.75 8.06639 0.935135 8.1842 1.22114L9.78204 5.12368L13.8228 5.50654C14.1204 5.53452 14.3712 5.74462 14.4634 6.04043C14.5556 6.33625 14.4703 6.66071 14.2458 6.86523L11.1913 9.65986L12.092 13.7997C12.158 14.1041 12.0448 14.4189 11.8027 14.6014C11.5612 14.784 11.2392 14.798 10.9849 14.6385L7.49995 12.4654L4.01503 14.6398C3.89722 14.7128 3.76594 14.75 3.63349 14.75ZM7.49995 11.5293C7.6324 11.5293 7.76357 11.5664 7.88149 11.6394L11.1704 13.692L10.3204 9.78458C10.2597 9.50649 10.3502 9.21614 10.5561 9.028L13.4402 6.38863L9.62449 6.02706C9.34976 6.00086 9.11349 5.82063 9.00614 5.55647L7.49995 1.87429L5.99195 5.55703C5.88578 5.81941 5.64951 5.99964 5.37542 6.02583L1.55916 6.38741L4.44315 9.02677C4.64972 9.21547 4.74009 9.50527 4.67888 9.78403L3.8295 13.6914L7.11841 11.6394C7.23623 11.5664 7.3675 11.5293 7.49995 11.5293ZM5.187 5.19913C5.187 5.19913 5.187 5.1998 5.18636 5.20036L5.187 5.19913ZM9.81173 5.19735L9.81237 5.19858C9.81237 5.19791 9.81237 5.19791 9.81173 5.19735Z" fill="#FFA331"/>
<g clip-path="url(#clip1_112_1134)">
<path d="M14.4634 6.12003C14.3712 5.83655 14.1198 5.63585 13.8235 5.60904L9.78209 5.24214L8.18491 1.50282C8.06699 1.22809 7.79867 1.05078 7.50002 1.05078C7.20137 1.05078 6.93295 1.22809 6.81577 1.50282L5.21859 5.24214L1.17656 5.60904C0.880264 5.63638 0.629359 5.83709 0.536645 6.12003C0.444466 6.40352 0.529596 6.71445 0.75369 6.91099L3.80866 9.58976L2.9079 13.557C2.842 13.8487 2.95522 14.1504 3.19726 14.3253C3.32736 14.4199 3.48021 14.4671 3.63359 14.4671C3.7654 14.4671 3.89731 14.432 4.01513 14.3615L7.50002 12.2778L10.9843 14.3615C11.2399 14.5143 11.5613 14.5003 11.8028 14.3253C12.0448 14.1504 12.158 13.8487 12.0921 13.557L11.1914 9.58976L14.2463 6.91099C14.4703 6.71445 14.5556 6.40416 14.4634 6.12003Z" fill="#FFA331"/>
</g>
</g>
<defs>
<clipPath id="clip0_112_1134">
<rect width="14" height="14" fill="white" transform="translate(0.5 0.75)"/>
</clipPath>
<clipPath id="clip1_112_1134">
<rect width="7" height="14" fill="white" transform="translate(0.5 0.75)"/>
</clipPath>
</defs>
</svg>
