<svg width="15" height="15" viewBox="0 0 15 15" fill="none" xmlns="http://www.w3.org/2000/svg">
<g clip-path="url(#clip0_112_1126)">
<path d="M14.4634 6.12003C14.3712 5.83655 14.1198 5.63585 13.8235 5.60904L9.78209 5.24214L8.18491 1.50282C8.06699 1.22809 7.79867 1.05078 7.50002 1.05078C7.20137 1.05078 6.93295 1.22809 6.81577 1.50282L5.21859 5.24214L1.17656 5.60904C0.880264 5.63638 0.629359 5.83709 0.536645 6.12003C0.444466 6.40352 0.529596 6.71445 0.75369 6.91099L3.80866 9.58976L2.9079 13.557C2.842 13.8487 2.95522 14.1504 3.19726 14.3253C3.32736 14.4199 3.48021 14.4671 3.63359 14.4671C3.7654 14.4671 3.89731 14.432 4.01513 14.3615L7.50002 12.2778L10.9843 14.3615C11.2399 14.5143 11.5613 14.5003 11.8028 14.3253C12.0448 14.1504 12.158 13.8487 12.0921 13.557L11.1914 9.58976L14.2463 6.91099C14.4703 6.71445 14.5556 6.40416 14.4634 6.12003Z" fill="#FFA331"/>
</g>
<defs>
<clipPath id="clip0_112_1126">
<rect width="14" height="14" fill="white" transform="translate(0.5 0.75)"/>
</clipPath>
</defs>
</svg>
