<svg width="70" height="70" fill="none" xmlns="http://www.w3.org/2000/svg"><path d="M35 2.059c-13.622 0-24.705 11.082-24.705 24.706 0 16.08 22.27 39.55 23.217 40.54a2.06 2.06 0 0 0 2.975 0c.95-.99 23.22-24.46 23.22-40.54C59.707 13.14 48.624 2.058 35 2.058zm0 60.78c-4.959-5.511-20.587-23.855-20.587-36.074 0-11.353 9.235-20.589 20.588-20.589 11.352 0 20.588 9.236 20.588 20.589 0 12.208-15.63 30.563-20.588 36.074z" fill="#FFED00"/><path d="M35 62.84c-4.959-5.512-20.587-23.856-20.587-36.075 0-11.353 9.235-20.589 20.588-20.589 11.352 0 20.588 9.236 20.588 20.589 0 12.208-15.63 30.563-20.588 36.074z" fill="#FFED00"/><path d="M35 12.353c-7.947 0-14.412 6.467-14.412 14.412 0 7.945 6.465 14.412 14.412 14.412 7.947 0 14.412-6.467 14.412-14.412 0-7.945-6.465-14.412-14.412-14.412zm0 24.706c-5.676 0-10.294-4.618-10.294-10.294S29.324 16.47 35 16.47s10.294 4.618 10.294 10.294S40.676 37.059 35 37.059z" fill="#000"/><path d="M35 37.059c-5.676 0-10.294-4.618-10.294-10.294S29.324 16.47 35 16.47s10.294 4.618 10.294 10.294S40.676 37.059 35 37.059z" fill="#fff"/></svg>