<svg width="190" height="30" viewBox="0 0 190 30" fill="none" xmlns="http://www.w3.org/2000/svg">
<path d="M15.4755 3.08156L17.6677 9.82827C17.8685 10.4463 18.4444 10.8647 19.0943 10.8647H26.1882C26.6725 10.8647 26.8739 11.4846 26.4821 11.7693L20.743 15.9389C20.2172 16.3209 19.9972 16.998 20.1981 17.616L22.3902 24.3627C22.5399 24.8234 22.0126 25.2064 21.6208 24.9217L15.8817 20.752C15.3559 20.3701 14.6441 20.3701 14.1183 20.752L8.37923 24.9217C7.98737 25.2064 7.46013 24.8234 7.60981 24.3627L9.80194 17.616C10.0028 16.998 9.78277 16.3209 9.25704 15.939L3.51794 11.7693C3.12609 11.4846 3.32747 10.8647 3.81184 10.8647H10.9057C11.5556 10.8647 12.1315 10.4463 12.3323 9.82827L14.5245 3.08156C14.6741 2.6209 15.3259 2.62091 15.4755 3.08156Z" stroke="#FFED00"/>
<path d="M55.4755 3.08156L57.6677 9.82827C57.8685 10.4463 58.4444 10.8647 59.0943 10.8647H66.1882C66.6725 10.8647 66.8739 11.4846 66.4821 11.7693L60.743 15.9389C60.2172 16.3209 59.9972 16.998 60.1981 17.616L62.3902 24.3627C62.5399 24.8234 62.0126 25.2064 61.6208 24.9217L55.8817 20.752C55.3559 20.3701 54.6441 20.3701 54.1183 20.752L48.3792 24.9217C47.9874 25.2064 47.4601 24.8234 47.6098 24.3627L49.8019 17.616C50.0028 16.998 49.7828 16.3209 49.257 15.939L43.5179 11.7693C43.1261 11.4846 43.3275 10.8647 43.8118 10.8647H50.9057C51.5556 10.8647 52.1315 10.4463 52.3323 9.82827L54.5245 3.08156C54.6741 2.6209 55.3259 2.62091 55.4755 3.08156Z" stroke="#FFED00"/>
<path d="M95.4755 3.08156L97.6677 9.82827C97.8685 10.4463 98.4444 10.8647 99.0943 10.8647H106.188C106.673 10.8647 106.874 11.4846 106.482 11.7693L100.743 15.9389C100.217 16.3209 99.9972 16.998 100.198 17.616L102.39 24.3627C102.54 24.8234 102.013 25.2064 101.621 24.9217L95.8817 20.752C95.3559 20.3701 94.6441 20.3701 94.1183 20.752L88.3792 24.9217C87.9874 25.2064 87.4601 24.8234 87.6098 24.3627L89.8019 17.616C90.0028 16.998 89.7828 16.3209 89.257 15.939L83.5179 11.7693C83.1261 11.4846 83.3275 10.8647 83.8118 10.8647H90.9057C91.5556 10.8647 92.1315 10.4463 92.3323 9.82827L94.5245 3.08156C94.6741 2.6209 95.3259 2.62091 95.4755 3.08156Z" stroke="#FFED00"/>
<path d="M135.476 3.08156L137.668 9.82827C137.868 10.4463 138.444 10.8647 139.094 10.8647H146.188C146.673 10.8647 146.874 11.4846 146.482 11.7693L140.743 15.9389C140.217 16.3209 139.997 16.998 140.198 17.616L142.39 24.3627C142.54 24.8234 142.013 25.2064 141.621 24.9217L135.882 20.752C135.356 20.3701 134.644 20.3701 134.118 20.752L128.379 24.9217C127.987 25.2064 127.46 24.8234 127.61 24.3627L129.802 17.616C130.003 16.998 129.783 16.3209 129.257 15.939L123.518 11.7693C123.126 11.4846 123.327 10.8647 123.812 10.8647H130.906C131.556 10.8647 132.132 10.4463 132.332 9.82827L134.524 3.08156C134.674 2.6209 135.326 2.62091 135.476 3.08156Z" stroke="#FFED00"/>
<path d="M175.476 3.08156L177.668 9.82827C177.868 10.4463 178.444 10.8647 179.094 10.8647H186.188C186.673 10.8647 186.874 11.4846 186.482 11.7693L180.743 15.9389C180.217 16.3209 179.997 16.998 180.198 17.616L182.39 24.3627C182.54 24.8234 182.013 25.2064 181.621 24.9217L175.882 20.752C175.356 20.3701 174.644 20.3701 174.118 20.752L168.379 24.9217C167.987 25.2064 167.46 24.8234 167.61 24.3627L169.802 17.616C170.003 16.998 169.783 16.3209 169.257 15.939L163.518 11.7693C163.126 11.4846 163.327 10.8647 163.812 10.8647H170.906C171.556 10.8647 172.132 10.4463 172.332 9.82827L174.524 3.08156C174.674 2.6209 175.326 2.62091 175.476 3.08156Z" stroke="#FFED00"/>
</svg>
