<svg width="190" height="30" viewBox="0 0 190 30" fill="none" xmlns="http://www.w3.org/2000/svg">
<path d="M14.0489 2.92705C14.3483 2.00574 15.6517 2.00574 15.9511 2.92705L18.1432 9.67376C18.2771 10.0858 18.661 10.3647 19.0943 10.3647H26.1882C27.1569 10.3647 27.5597 11.6044 26.776 12.1738L21.0369 16.3435C20.6864 16.5981 20.5397 17.0495 20.6736 17.4615L22.8657 24.2082C23.1651 25.1295 22.1106 25.8956 21.3269 25.3262L15.5878 21.1565C15.2373 20.9019 14.7627 20.9019 14.4122 21.1565L8.67312 25.3262C7.88941 25.8956 6.83493 25.1295 7.13428 24.2082L9.32642 17.4615C9.46029 17.0495 9.31363 16.5981 8.96315 16.3435L3.22405 12.1738C2.44034 11.6044 2.84311 10.3647 3.81184 10.3647H10.9057C11.339 10.3647 11.7229 10.0858 11.8568 9.67376L14.0489 2.92705Z" fill="#FFED00"/>
<path d="M54.0489 2.92705C54.3483 2.00574 55.6517 2.00574 55.9511 2.92705L58.1432 9.67376C58.2771 10.0858 58.661 10.3647 59.0943 10.3647H66.1882C67.1569 10.3647 67.5597 11.6044 66.776 12.1738L61.0369 16.3435C60.6864 16.5981 60.5397 17.0495 60.6736 17.4615L62.8657 24.2082C63.1651 25.1295 62.1106 25.8956 61.3269 25.3262L55.5878 21.1565C55.2373 20.9019 54.7627 20.9019 54.4122 21.1565L48.6731 25.3262C47.8894 25.8956 46.8349 25.1295 47.1343 24.2082L49.3264 17.4615C49.4603 17.0495 49.3136 16.5981 48.9631 16.3435L43.2241 12.1738C42.4403 11.6044 42.8431 10.3647 43.8118 10.3647H50.9057C51.339 10.3647 51.7229 10.0858 51.8568 9.67376L54.0489 2.92705Z" fill="#FFED00"/>
<path d="M94.0489 2.92705C94.3483 2.00574 95.6517 2.00574 95.9511 2.92705L98.1432 9.67376C98.2771 10.0858 98.661 10.3647 99.0943 10.3647H106.188C107.157 10.3647 107.56 11.6044 106.776 12.1738L101.037 16.3435C100.686 16.5981 100.54 17.0495 100.674 17.4615L102.866 24.2082C103.165 25.1295 102.111 25.8956 101.327 25.3262L95.5878 21.1565C95.2373 20.9019 94.7627 20.9019 94.4122 21.1565L88.6731 25.3262C87.8894 25.8956 86.8349 25.1295 87.1343 24.2082L89.3264 17.4615C89.4603 17.0495 89.3136 16.5981 88.9631 16.3435L83.2241 12.1738C82.4403 11.6044 82.8431 10.3647 83.8118 10.3647H90.9057C91.339 10.3647 91.7229 10.0858 91.8568 9.67376L94.0489 2.92705Z" fill="#FFED00"/>
<path d="M134.049 2.92705C134.348 2.00574 135.652 2.00574 135.951 2.92705L138.143 9.67376C138.277 10.0858 138.661 10.3647 139.094 10.3647H146.188C147.157 10.3647 147.56 11.6044 146.776 12.1738L141.037 16.3435C140.686 16.5981 140.54 17.0495 140.674 17.4615L142.866 24.2082C143.165 25.1295 142.111 25.8956 141.327 25.3262L135.588 21.1565C135.237 20.9019 134.763 20.9019 134.412 21.1565L128.673 25.3262C127.889 25.8956 126.835 25.1295 127.134 24.2082L129.326 17.4615C129.46 17.0495 129.314 16.5981 128.963 16.3435L123.224 12.1738C122.44 11.6044 122.843 10.3647 123.812 10.3647H130.906C131.339 10.3647 131.723 10.0858 131.857 9.67376L134.049 2.92705Z" fill="#FFED00"/>
<path d="M174.049 2.92705C174.348 2.00574 175.652 2.00574 175.951 2.92705L178.143 9.67376C178.277 10.0858 178.661 10.3647 179.094 10.3647H186.188C187.157 10.3647 187.56 11.6044 186.776 12.1738L181.037 16.3435C180.686 16.5981 180.54 17.0495 180.674 17.4615L182.866 24.2082C183.165 25.1295 182.111 25.8956 181.327 25.3262L175.588 21.1565C175.237 20.9019 174.763 20.9019 174.412 21.1565L168.673 25.3262C167.889 25.8956 166.835 25.1295 167.134 24.2082L169.326 17.4615C169.46 17.0495 169.314 16.5981 168.963 16.3435L163.224 12.1738C162.44 11.6044 162.843 10.3647 163.812 10.3647H170.906C171.339 10.3647 171.723 10.0858 171.857 9.67376L174.049 2.92705Z" fill="#FFED00"/>
</svg>
