<svg width="31" height="31" viewBox="0 0 31 31" fill="none" xmlns="http://www.w3.org/2000/svg">
<path fill-rule="evenodd" clip-rule="evenodd" d="M20.5423 0.9375H11.3327C2.92762 0.9375 0.9375 2.92762 0.9375 11.3327V20.5423C0.9375 28.9474 2.92762 30.9375 11.3327 30.9375H20.5423C28.9474 30.9375 30.9375 28.9474 30.9375 20.5423V11.3327C30.9375 2.92762 28.9474 0.9375 20.5423 0.9375ZM24.8401 10.4647C25.4964 10.4647 25.6446 10.8034 25.4964 11.2692C25.2652 12.3366 23.3445 15.1682 22.7496 16.0453C22.6366 16.2119 22.5714 16.308 22.5748 16.308C22.3419 16.6891 22.2572 16.8585 22.5748 17.2819C22.6896 17.4384 22.933 17.6773 23.2112 17.9503C23.4974 18.2311 23.8203 18.548 24.078 18.8486C25.0095 19.9072 25.7293 20.7964 25.9199 21.4103C26.0892 22.0243 25.7928 22.3419 25.1577 22.3419H22.977C22.3991 22.3419 22.1013 22.01 21.4664 21.3027C21.1942 20.9994 20.86 20.6271 20.4153 20.1824C19.1238 18.9333 18.5522 18.7639 18.2346 18.7639C17.79 18.7639 17.663 18.8698 17.663 19.5049V21.4738C17.663 22.0031 17.4936 22.3207 16.0963 22.3207C13.7886 22.3207 11.2269 20.9234 9.42729 18.3193C6.71734 14.5084 5.97633 11.6291 5.97633 11.0575C5.97633 10.7399 6.08219 10.4435 6.71734 10.4435H8.91917C9.46963 10.4435 9.68134 10.6764 9.89306 11.2904C10.9728 14.4026 12.7724 17.1337 13.5134 17.1337C13.7886 17.1337 13.9156 17.0067 13.9156 16.308V13.0899C13.8634 12.1752 13.545 11.7767 13.3088 11.4812C13.1624 11.2979 13.0476 11.1542 13.0476 10.9516C13.0476 10.6976 13.2593 10.4435 13.5981 10.4435H17.0278C17.4936 10.4435 17.663 10.6976 17.663 11.248V15.5882C17.663 16.0539 17.8535 16.2233 18.0017 16.2233C18.277 16.2233 18.5099 16.0539 19.018 15.5458C20.5847 13.7886 21.7067 11.0786 21.7067 11.0786C21.8549 10.7611 22.109 10.4647 22.6595 10.4647H24.8401Z" fill="white"/>
</svg>
