<svg width="24" height="24" viewBox="0 0 24 24" fill="none" xmlns="http://www.w3.org/2000/svg">
<path d="M17.3969 10.8884L11.7451 16.5402C11.5755 16.7098 11.3746 16.7946 11.1424 16.7946C10.9103 16.7946 10.7094 16.7098 10.5398 16.5402L6.60226 12.6027C6.43262 12.433 6.3478 12.2321 6.3478 12C6.3478 11.7679 6.43262 11.567 6.60226 11.3973L7.96833 10.0313C8.13797 9.86161 8.33887 9.77679 8.57101 9.77679C8.80315 9.77679 9.00405 9.86161 9.17369 10.0313L11.1424 12L14.8255 8.31697C14.9951 8.14732 15.196 8.0625 15.4282 8.0625C15.6603 8.0625 15.8612 8.14732 16.0308 8.31697L17.3969 9.68304C17.5665 9.85268 17.6514 10.0536 17.6514 10.2857C17.6514 10.5179 17.5665 10.7188 17.3969 10.8884ZM19.2853 12C19.2853 10.6786 18.9594 9.45982 18.3076 8.34375C17.6558 7.22768 16.7719 6.34375 15.6558 5.69197C14.5398 5.04018 13.321 4.71429 11.9996 4.71429C10.6782 4.71429 9.4594 5.04018 8.34333 5.69197C7.22726 6.34375 6.34333 7.22768 5.69155 8.34375C5.03976 9.45982 4.71387 10.6786 4.71387 12C4.71387 13.3214 5.03976 14.5402 5.69155 15.6563C6.34333 16.7723 7.22726 17.6563 8.34333 18.308C9.4594 18.9598 10.6782 19.2857 11.9996 19.2857C13.321 19.2857 14.5398 18.9598 15.6558 18.308C16.7719 17.6563 17.6558 16.7723 18.3076 15.6563C18.9594 14.5402 19.2853 13.3214 19.2853 12ZM22.2853 12C22.2853 13.8661 21.8255 15.5871 20.9058 17.1629C19.9862 18.7388 18.7384 19.9866 17.1625 20.9063C15.5866 21.8259 13.8657 22.2857 11.9996 22.2857C10.1335 22.2857 8.41253 21.8259 6.83664 20.9063C5.26074 19.9866 4.01297 18.7388 3.09333 17.1629C2.17369 15.5871 1.71387 13.8661 1.71387 12C1.71387 10.1339 2.17369 8.41295 3.09333 6.83705C4.01297 5.26116 5.26074 4.01339 6.83664 3.09375C8.41253 2.17411 10.1335 1.71429 11.9996 1.71429C13.8657 1.71429 15.5866 2.17411 17.1625 3.09375C18.7384 4.01339 19.9862 5.26116 20.9058 6.83705C21.8255 8.41295 22.2853 10.1339 22.2853 12Z" fill="#56CC85"/>
</svg>
