<svg width="24" height="24" viewBox="0 0 24 24" fill="none" xmlns="http://www.w3.org/2000/svg">
<path d="M9.912 6.04799C9.6255 2.75249 6.1875 1.13549 6.042 1.06949C5.90598 1.00555 5.75355 0.985125 5.6055 1.01099C1.6365 1.66949 1.0395 3.97949 1.0155 4.07549C0.982847 4.20927 0.98804 4.3495 1.0305 4.48049C5.7645 19.1685 15.603 21.891 18.837 22.7865C19.086 22.8555 19.2915 22.911 19.4475 22.962C19.6255 23.0202 19.8189 23.0089 19.989 22.9305C20.088 22.8855 22.425 21.7845 22.9965 18.1935C23.0218 18.0367 22.9966 17.876 22.9245 17.7345C22.8735 17.6355 21.651 15.309 18.261 14.487C18.146 14.4576 18.0256 14.4565 17.9101 14.484C17.7946 14.5114 17.6875 14.5665 17.598 14.6445C16.5285 15.558 15.051 16.5315 14.4135 16.632C10.14 14.5425 7.7535 10.533 7.6635 9.77249C7.611 9.34499 8.5905 7.84349 9.717 6.62249C9.7878 6.54565 9.84173 6.45483 9.87532 6.35589C9.9089 6.25694 9.9214 6.15206 9.912 6.04799Z" fill="#FF8616"/>
</svg>
