<svg width="24" height="24" viewBox="0 0 24 24" fill="none" xmlns="http://www.w3.org/2000/svg">
<path fill-rule="evenodd" clip-rule="evenodd" d="M3.37715 3.57647C6.61037 0.249136 11.9252 0.177164 15.2526 3.41038C18.1592 6.23391 18.5799 10.6464 16.4872 13.9349L22.854 20.1246C23.5294 20.7779 23.546 21.8685 22.8872 22.5439C22.2339 23.2194 21.1432 23.236 20.4678 22.5772L14.101 16.3875C10.8733 18.5744 6.44981 18.2754 3.54324 15.4519C0.215903 12.2187 0.14393 6.90381 3.37715 3.57647ZM5.1377 5.29274C7.42421 2.93979 11.1834 2.88997 13.5363 5.17647C15.8893 7.46298 15.9391 11.2221 13.6526 13.5751C11.3661 15.928 7.60691 15.9779 5.25397 13.6914C2.90102 11.4048 2.8512 7.64568 5.1377 5.29274Z" fill="#D0DAE4"/>
</svg>
