<svg width="12" height="16" viewBox="0 0 12 16" fill="none" xmlns="http://www.w3.org/2000/svg">
<path fill-rule="evenodd" clip-rule="evenodd" d="M12 5.79048C12 2.59048 9.31466 0 5.99747 0C2.12741 0 -0.873853 3.58095 0.231877 7.54286C0.389838 8 0.62678 8.53333 0.942703 8.99048L1.02168 9.06667L5.52358 15.7714C5.76053 16.0762 6.23441 16.0762 6.47135 15.7714L11.0522 8.91429C11.6841 8 12 6.85714 12 5.79048ZM7.71427 5.95723C7.71427 6.83052 6.92306 7.57906 5.99998 7.57906C5.0769 7.57906 4.28569 6.95528 4.28569 5.95723C4.28569 4.95917 5.0769 4.21064 5.99998 4.21064C7.05492 4.21064 7.71427 5.08393 7.71427 5.95723Z" fill="#FF8616"/>
</svg>
