<svg width="20" height="20" viewBox="0 0 20 20" fill="none" xmlns="http://www.w3.org/2000/svg">
<path d="M3.65385 2.33333C3.34783 2.33333 3.05434 2.44747 2.83795 2.65063C2.62157 2.8538 2.5 3.12935 2.5 3.41667V4.5C2.5 4.78732 2.62157 5.06287 2.83795 5.26603C3.05434 5.4692 3.34783 5.58333 3.65385 5.58333H4.23077V15.3333C4.23077 15.908 4.4739 16.4591 4.90668 16.8654C5.33945 17.2717 5.92642 17.5 6.53846 17.5H13.4615C14.0736 17.5 14.6605 17.2717 15.0933 16.8654C15.5261 16.4591 15.7692 15.908 15.7692 15.3333V5.58333H16.3462C16.6522 5.58333 16.9457 5.4692 17.162 5.26603C17.3784 5.06287 17.5 4.78732 17.5 4.5V3.41667C17.5 3.12935 17.3784 2.8538 17.162 2.65063C16.9457 2.44747 16.6522 2.33333 16.3462 2.33333H12.3077C12.3077 2.04602 12.1861 1.77047 11.9697 1.5673C11.7534 1.36414 11.4599 1.25 11.1538 1.25H8.84615C8.54013 1.25 8.24665 1.36414 8.03026 1.5673C7.81387 1.77047 7.69231 2.04602 7.69231 2.33333H3.65385ZM7.11538 6.66667C7.26839 6.66667 7.41514 6.72374 7.52333 6.82532C7.63152 6.9269 7.69231 7.06467 7.69231 7.20833V14.7917C7.69231 14.9353 7.63152 15.0731 7.52333 15.1747C7.41514 15.2763 7.26839 15.3333 7.11538 15.3333C6.96238 15.3333 6.81563 15.2763 6.70744 15.1747C6.59924 15.0731 6.53846 14.9353 6.53846 14.7917V7.20833C6.53846 7.06467 6.59924 6.9269 6.70744 6.82532C6.81563 6.72374 6.96238 6.66667 7.11538 6.66667ZM10 6.66667C10.153 6.66667 10.2998 6.72374 10.4079 6.82532C10.5161 6.9269 10.5769 7.06467 10.5769 7.20833V14.7917C10.5769 14.9353 10.5161 15.0731 10.4079 15.1747C10.2998 15.2763 10.153 15.3333 10 15.3333C9.84699 15.3333 9.70025 15.2763 9.59205 15.1747C9.48386 15.0731 9.42308 14.9353 9.42308 14.7917V7.20833C9.42308 7.06467 9.48386 6.9269 9.59205 6.82532C9.70025 6.72374 9.84699 6.66667 10 6.66667ZM13.4615 7.20833V14.7917C13.4615 14.9353 13.4008 15.0731 13.2926 15.1747C13.1844 15.2763 13.0376 15.3333 12.8846 15.3333C12.7316 15.3333 12.5849 15.2763 12.4767 15.1747C12.3685 15.0731 12.3077 14.9353 12.3077 14.7917V7.20833C12.3077 7.06467 12.3685 6.9269 12.4767 6.82532C12.5849 6.72374 12.7316 6.66667 12.8846 6.66667C13.0376 6.66667 13.1844 6.72374 13.2926 6.82532C13.4008 6.9269 13.4615 7.06467 13.4615 7.20833Z" fill="#99A2AB"/>
</svg>
